<?xml version="1.0" encoding="utf-8"?>
<!-- Generator: Adobe Illustrator 23.0.0, SVG Export Plug-In . SVG Version: 6.00 Build 0)  -->
<svg version="1.1" id="Layer_1" xmlns="http://www.w3.org/2000/svg" xmlns:xlink="http://www.w3.org/1999/xlink" x="0px" y="0px"
	 viewBox="0 0 800 800" style="enable-background:new 0 0 800 800;" xml:space="preserve">
<style type="text/css">
	.st0{fill:#F3A36B;}
	.st1{fill:#8E8E8E;}
	.st2{fill:#939393;}
	.st3{fill:#111111;}
	.st4{fill:#963C3C;}
	.st5{fill:url(#SVGID_1_);}
	.st6{fill:#BFBFBF;}
	.st7{fill:#774B46;}
	.st8{fill:#3A1813;}
	.st9{fill:#E0D9D9;}
	.st10{fill:url(#SVGID_2_);}
	.st11{fill:url(#SVGID_3_);}
	.st12{fill:url(#SVGID_4_);}
	.st13{fill:#D18963;}
	.st14{fill:url(#SVGID_5_);}
	.st15{fill:#AF4343;}
	.st16{fill:url(#SVGID_6_);}
	.st17{fill:#D6D6D8;}
	.st18{fill:url(#SVGID_7_);}
	.st19{fill:url(#SVGID_8_);}
	.st20{fill:#333333;}
	.st21{opacity:0.5;}
	.st22{fill:#F4E1D4;}
	.st23{fill:#9B4536;}
	.st24{fill:#FFFFFF;}
	.st25{fill:#B7554E;}
	.st26{fill:#494544;}
	.st27{fill:#F9F9F9;}
	.st28{opacity:0.4;}
	.st29{fill:url(#SVGID_9_);}
	.st30{fill-rule:evenodd;clip-rule:evenodd;fill:#F1BB2F;stroke:#7C7109;stroke-width:0.275;stroke-miterlimit:2.6131;}
	.st31{fill-rule:evenodd;clip-rule:evenodd;fill:none;stroke:#000000;stroke-width:0.275;stroke-miterlimit:2.6131;}
	.st32{fill-rule:evenodd;clip-rule:evenodd;fill:none;stroke:#000000;stroke-width:0.2751;stroke-miterlimit:2.6131;}
	.st33{fill-rule:evenodd;clip-rule:evenodd;fill:#ED2D2F;stroke:#000000;stroke-width:0.275;stroke-miterlimit:2.6131;}
	.st34{fill-rule:evenodd;clip-rule:evenodd;fill:#FFFFFF;stroke:#000000;stroke-width:0.2751;stroke-miterlimit:2.6131;}
	.st35{fill-rule:evenodd;clip-rule:evenodd;}
	.st36{fill:url(#SVGID_10_);}
	.st37{fill:url(#SVGID_11_);}
	.st38{fill:url(#SVGID_12_);}
	.st39{fill:url(#SVGID_13_);}
	.st40{fill:url(#SVGID_14_);}
	.st41{fill:url(#SVGID_15_);}
	.st42{fill:#808080;}
	.st43{fill:#999999;}
	.st44{fill:url(#SVGID_16_);}
	.st45{opacity:3.000000e-02;}
	.st46{opacity:0.36;}
	.st47{fill:#6D4731;}
	.st48{fill-rule:evenodd;clip-rule:evenodd;fill:#F1BB2F;stroke:#000000;stroke-width:0.2675;stroke-miterlimit:2.6131;}
	.st49{fill-rule:evenodd;clip-rule:evenodd;fill:none;stroke:#000000;stroke-width:0.2675;stroke-miterlimit:2.6131;}
	.st50{fill-rule:evenodd;clip-rule:evenodd;fill:none;stroke:#000000;stroke-width:0.2676;stroke-miterlimit:2.6131;}
	.st51{fill-rule:evenodd;clip-rule:evenodd;fill:#ED2D2F;stroke:#000000;stroke-width:0.2675;stroke-miterlimit:2.6131;}
	.st52{fill-rule:evenodd;clip-rule:evenodd;fill:#FFFFFF;stroke:#000000;stroke-width:0.2676;stroke-miterlimit:2.6131;}
	.st53{fill:url(#SVGID_17_);}
	.st54{fill:url(#SVGID_18_);}
	.st55{fill:url(#SVGID_19_);}
	.st56{fill:url(#SVGID_20_);}
	.st57{fill:#232323;}
</style>
<g>
	<path class="st0" d="M190.5,509.4c0,0-7.2,43.2-9,44.1c-0.3,0.1-0.7,0.2-1.1,0c-1.8-0.5-4.5-3.4-5.7-6.6c-0.2-0.5-0.4-1.1-0.5-1.6
		c-0.3-1.4-0.4-5.3-0.4-10.1c0-2.6,0.1-5.5,0.1-8.4c0.2-6.5,0.5-13.2,0.8-17.7c0.1-1.4,0.2-2.6,0.3-3.5l1.6,0.4L190.5,509.4z"/>
	<path class="st0" d="M205.8,525.6c-1.2,3.6-4.1,11.4-4.8,12.1c-0.2,4-0.4,8.9-0.4,8.9s-0.9,8.6-4.4,8.8c-3.5,0.1-3.3-6.4-3.3-6.4
		s0.9-14.1,1.2-15.2c0.3-1-0.1-2.2-0.4-1.1c-0.3,1-5.7,12.8-5.7,12.8s-3.1,10.2-6.3,9.3c-0.6-0.2-1-0.6-1.3-1.2
		c-1-2.6,0.7-8.2,1.2-9.9c0.6-2,3.8-12.3,4.4-14.3c0.6-2-1.3-0.6-1.6,0.4c-0.3,1-3.5,5.7-4.7,9.8c-1.1,3.7-2.3,7.4-4.9,7.4
		c-0.3,0-0.5,0-0.8-0.1c-3.2-0.9-1.3-7-0.4-10.1c0.1-0.4,0.3-0.9,0.4-1.5c1-3.8,2.5-10.8,2.8-11.7c0.3-0.9-0.8,1.1-2.7,3.3
		c0.2-6.5,0.5-13.2,0.8-17.7c0.7-1,1.3-2.1,1.9-3.1c0.7-1.2,1.4-2.4,2.1-3.5c1.6,1.8,3.3,3.4,3.6,3.9c0.6,1,19,0.9,23.1,0.9
		c0.5,0,0.8,0,0.8,0s-0.1-1-0.1-2.5c0,0,0.1,0.1,0.1,0.1c0.2,0.2,0.5,0.8,0.9,1.5C208.3,510.2,207.9,519.3,205.8,525.6z"/>
	<g>
		<path class="st0" d="M206.4,507.4c0,0-0.3,0-0.8,0c-4,0-22.4,0.1-23.1-0.9c-0.3-0.5-2-2.1-3.6-3.9c-1.9-2-3.8-4.2-3.5-5.2
			c0.4-1.7,6.5-16.1,6.5-16.1l27.5,12.9c-2.2,3.1-2.9,6.8-3.1,9.5c0,0.4,0,0.8,0,1.2C206.2,506.5,206.4,507.4,206.4,507.4z"/>
		<path class="st0" d="M206.4,507.4c0,0-0.3,0-0.8,0c-4,0-22.4,0.1-23.1-0.9c-0.3-0.5-2-2.1-3.6-3.9c1.1-1.8,2.2-3.3,3.2-4.1
			c0,0,0.1-0.1,0.1-0.1c0,0,20.3,3.5,23.8,6.3c0.1,0,0.1,0.1,0.2,0.2C206.2,506.5,206.4,507.4,206.4,507.4z"/>
	</g>
	<g>
		<path class="st0" d="M342.9,493.2c2.7,6.3,0,13.5,0,13.5s22.5,5.4,23.4,4.5s3.4-1.8,3.4-3.6s2.9-20.7,2.9-20.7L342.9,493.2z"/>
		<path class="st0" d="M359.3,533.5c0.1,1.1,2.1,6.3,2.4,10.6c0.3,4.3,0.6,8.5,3.9,8.4c3.3-0.1,2.9-6.5,2.7-9.7
			c-0.2-3.2-0.1-12.5-0.1-13.5c-0.1-1.1,0.8,2.3,2.7,5.4c1.9,3.1,2,11.7,5.4,12.6c3.4,0.9,2.8-6.9,2.7-9c-0.2-2.1-3.4-16.4-5.4-21.6
			c-2-5.2-3.2-10.9-5-13.1c0,0-0.1-0.1-0.1-0.1c0,0-21.7-1.3-24.9,1c-0.7,0.5-1.5,1.2-2.4,1.8c-2.8,2.3-6,15.8-7.2,16.7
			c-1.6,1.1,2.8,10,4.5,9.9c1.7-0.1,1.3-11.2,3-10.2c1.7,1,0.6,8.5,0.7,9.6c0.1,1.1-2.4,14-2.4,14s-1.1,8.6,2.3,9.5
			c3.4,0.9,4.6-5.5,4.6-5.5s2.4-14,2.3-15c-0.1-1.1,0.5-2.1,0.6-1c0.1,1.1,2.6,13.8,2.6,13.8s0.7,10.7,4.1,10.5
			c3.3-0.1,2.7-8.7,2.6-10.8c-0.2-2.1-0.9-12.8-1-14.9C357.6,530.6,359.2,532.4,359.3,533.5z"/>
	</g>
	<rect x="184.2" y="483.3" class="st1" width="15.3" height="222.4"/>
	<rect x="363.4" y="478.8" class="st1" width="15.3" height="222.4"/>
	<g>
		<path class="st2" d="M352.5,713c0.3,0.9-4.9,5.3,1.2,7.4c6.1,2.1,81.6-2.1,80.4-4.2c-1.2-2.1,0-7.2,0-7.2L352.5,713z"/>
		<path class="st3" d="M400.5,677c-6.3-5.4-12.7,14.8-29.8,22.2c-17,7.4-25.6,15.9-13.4,16.9c12.2,1.1,74.3-2.1,75.5-4.2
			c1.2-2.1,3.7-6.3,2.4-13.8c-1.2-7.4-6.2-21.2-6.2-21.2S407.8,683.4,400.5,677z"/>
		<path class="st2" d="M389.5,683.3c-3.6,1-4.6,5.5-5,5.9c-0.4,0.4,5,8.8,5,8.8l4.5-5.2L389.5,683.3z"/>
	</g>
	<path class="st0" d="M448.7,497.7c-21,1.5-19.4,4.4-26.4,19c-6.9,14.7-26.7,155.7-24.6,162.2c2,6.5,29.8,9.4,30.1,6.7
		c0.3-2.7,23.2-121.6,23.9-136.9l17,1.7l-0.2-51.6L448.7,497.7z"/>
	<path class="st4" d="M471.3,561.7c-0.7,7.9-1.7,14.3-1.7,14.3s-1.8-11.7-1.8-15.3L471.3,561.7z"/>
	<linearGradient id="SVGID_1_" gradientUnits="userSpaceOnUse" x1="428.794" y1="602.8403" x2="470.1102" y2="608.9504">
		<stop  offset="0" style="stop-color:#F8CE98"/>
		<stop  offset="0.2795" style="stop-color:#F7C992"/>
		<stop  offset="0.6341" style="stop-color:#F5BA83"/>
		<stop  offset="1" style="stop-color:#F3A36B"/>
	</linearGradient>
	<path class="st5" d="M467.8,516.6c-9.2,4.8-28.8,9-34.2,24.3c-5.4,15.3-11.7,152.2-9,158.5s30.6,6.3,30.6,3.6s10.8-117.1,9.9-132.4
		l17.1-6.3l-1.8-54L467.8,516.6z"/>
	<path class="st6" d="M220.1,694.9c0.3,0.8-4.6,4.5,1.1,6.3s77-1.8,75.9-3.6s0-6.2,0-6.2L220.1,694.9z"/>
	<path class="st6" d="M302.4,679.6c-1.5,1.4-0.6,11,1,14.4c4.2,9,5.2,10.8,17.7,11.7s18.8-5.4,18.8-8.1s-3.1-9.9-3.1-9.9
		L302.4,679.6z"/>
	<path class="st0" d="M336.8,532.8c2.1,14.4,3.1,91.8-4.2,127.9c-7.3,36-30.2,16.2-30.2,14.4s3.1-8.1,3.1-12.6s-3.1-60.3,0-96.3
		C308.7,530.1,336.8,532.8,336.8,532.8z"/>
	<path class="st0" d="M262.1,536.4c-1.9,14.4-2.8,91.8,3.8,127.9c6.6,36,27.3,16.2,27.3,14.4s-2.8-8.1-2.8-12.6
		c0-4.5,2.8-60.3,0-96.3S262.1,536.4,262.1,536.4z"/>
	<path class="st2" d="M634.4,452.7c7.2-1.8,12.6-11.7,12.6,12.6s5.4,90.9-6.3,99.9c-11.7,9-26.1,5.4-26.1,5.4s-8.1-9,0-10.8
		c8.1-1.8,18,1.8,20.7-12.6C638,532.8,634.4,452.7,634.4,452.7z"/>
	<path class="st7" d="M636,368c-0.1-0.1-0.2-0.2-0.3-0.3c-1.1-1.1-2.7-1.8-4.5-1.8c-3.5,0-6.3,2.8-6.3,6.3v125.2
		c0,1.9,0.8,3.5,2.1,4.7c-5.7,1.4-13.1,1.6-20.1-1.1c-11.7-4.5-14.4-8.1-14.4-8.1s3.6-93.6,5.4-129.7c0.7-14.2,36,0,37.8,3.6
		C635.8,366.9,635.9,367.3,636,368z"/>
	<path class="st8" d="M637.5,401.5v84c-0.4,7.3-1,12-1.8,12.7c-1.8,1.4-4.9,2.9-8.7,3.8c-1.3-1.2-2.1-2.8-2.1-4.7V372.1
		c0-3.5,2.8-6.3,6.3-6.3c1.7,0,3.3,0.7,4.5,1.8c0.1,0.1,0.2,0.2,0.3,0.3C636.5,372.1,637.1,385.2,637.5,401.5z"/>
	<path class="st4" d="M231.9,497.7c-3.6,17.1-5.4,48.6-5.4,48.6l-1.8,14.4c0,0,37.8,7.2,69.3,7.2s71.1-8.1,72.9-12.6
		s-9.9-57.6-9.9-57.6H231.9z"/>
	<rect x="167.1" y="435.6" class="st6" width="12.6" height="286.3"/>
	<rect x="385" y="435.6" class="st6" width="12.6" height="286.3"/>
	<rect x="482.2" y="564" class="st6" width="12.4" height="165.1"/>
	<rect x="604" y="562.5" class="st6" width="12.4" height="166.6"/>
	<path class="st9" d="M394.6,497.7H171c-4.6,0-8.4-3.8-8.4-8.4v-48.9c0-4.6,3.8-8.4,8.4-8.4h223.6c4.6,0,8.4,3.8,8.4,8.4v48.9
		C403,493.9,399.2,497.7,394.6,497.7z"/>
	
		<linearGradient id="SVGID_2_" gradientUnits="userSpaceOnUse" x1="188.7441" y1="398.5955" x2="224.9704" y2="399.5303" gradientTransform="matrix(0.9899 0.1419 -0.1419 0.9899 65.8325 -22.1177)">
		<stop  offset="0" style="stop-color:#F8CE98"/>
		<stop  offset="0.2795" style="stop-color:#F7C992"/>
		<stop  offset="0.6341" style="stop-color:#F5BA83"/>
		<stop  offset="1" style="stop-color:#F3A36B"/>
	</linearGradient>
	<path class="st10" d="M200.6,380.6c-3.1,8.7-7.9,29.8-8.8,29.7s21.1,11.2,21.1,11.2l11.8-6.6c0,0,5.4-23.4,9.9-23.4
		C236.4,391.4,200.6,380.6,200.6,380.6z"/>
	<linearGradient id="SVGID_3_" gradientUnits="userSpaceOnUse" x1="370.6699" y1="398.3724" x2="348.4602" y2="397.7721">
		<stop  offset="0" style="stop-color:#F8CE98"/>
		<stop  offset="0.2795" style="stop-color:#F7C992"/>
		<stop  offset="0.6341" style="stop-color:#F5BA83"/>
		<stop  offset="1" style="stop-color:#F3A36B"/>
	</linearGradient>
	<path class="st11" d="M355.3,378.8c-1.8,9-3.6,30.6-4.5,30.6s22.5,8.1,22.5,8.1l15.3-12.6c0,0-7.2-18.9-7.2-20.7
		C381.4,382.4,355.3,378.8,355.3,378.8z"/>
	<linearGradient id="SVGID_4_" gradientUnits="userSpaceOnUse" x1="372.277" y1="303.2912" x2="365.524" y2="404.8105">
		<stop  offset="0" style="stop-color:#F2F2F2"/>
		<stop  offset="0.3095" style="stop-color:#ECECEC"/>
		<stop  offset="0.7015" style="stop-color:#DDDDDD"/>
		<stop  offset="1" style="stop-color:#CCCCCC"/>
	</linearGradient>
	<path class="st12" d="M360.4,385.3c0.4-25.6,0.4-62.3-2.4-75.8c-0.1-0.6-0.5-1.4-1.2-2.4c4,2.2,10.5,7.4,15.6,17.7
		c7.2,14.4,9.9,57.6,9.9,57.6L360.4,385.3z"/>
	<path class="st13" d="M320.1,278c0,0-10.8,20.7-11.7,23.4s-18.9-0.9-19.8,0c-0.9,0.9-13.5-22.5-13.5-22.5s1.5-8.2,1.8-15.7
		c7.9,1.8,15.5,2.4,21.7,2.2c6.1-0.2,13.3-1,20.9-2.5L320.1,278z"/>
	<linearGradient id="SVGID_5_" gradientUnits="userSpaceOnUse" x1="209.175" y1="257.4193" x2="385.6349" y2="474.0216">
		<stop  offset="0" style="stop-color:#F2F2F2"/>
		<stop  offset="0.3095" style="stop-color:#ECECEC"/>
		<stop  offset="0.7015" style="stop-color:#DDDDDD"/>
		<stop  offset="1" style="stop-color:#CCCCCC"/>
	</linearGradient>
	<path class="st14" d="M361.3,387.1c-0.2,15.4-0.6,26.8-0.6,26.8H230.1c0,0,0.1-8,0.3-19.6c0.6-28.6,2.1-79.3,6-87.6
		c0.9-1.9,2.1-3.5,3.5-4.9c7-6.7,19.2-6.8,24.4-11.3c0,0,13.5-1.8,13.5-2.7c0-0.9,16.8,3,16.8,3l3,2.4l1.7-1l2.4-1.4l30.1-6.6
		c0,0,20.5,16.9,25.8,24.6l0,0c0.6,0.9,1.1,1.7,1.2,2.4C361.7,324.8,361.7,361.5,361.3,387.1z"/>
	<path class="st15" d="M401.2,129.4c-7.2,29.7-11.8,40.6-11.8,40.6l-171-4.6c-5.4-6.3-11.7-19.8-9-36.9c2.7-17.1,18-50.4,32.4-57.6
		c1.7-0.9,3.8-1.7,6.1-2.5c0,0,0,0,0,0c17.3-6.3,48.8-11.8,48.8-11.8s55.8,7.9,59.3,10.7c0,0,0,0,0,0c0,0,0,0,0.1,0.1c0,0,0,0,0,0
		s0,0,0,0c0.1,0.1,0.2,0.2,0.3,0.3c0,0,0,0,0,0C361.3,72,408.1,100.7,401.2,129.4z"/>
	<linearGradient id="SVGID_6_" gradientUnits="userSpaceOnUse" x1="303.0074" y1="85.7943" x2="302.7823" y2="143.4195">
		<stop  offset="0" style="stop-color:#F2F2F2"/>
		<stop  offset="0.3095" style="stop-color:#ECECEC"/>
		<stop  offset="0.7015" style="stop-color:#DDDDDD"/>
		<stop  offset="1" style="stop-color:#CCCCCC"/>
	</linearGradient>
	<path class="st16" d="M380.5,137.5l-11.7-0.9l-30.6-13.5l-112.5,11.7c0,0-1.8-6.3,0-19.8c1.8-13.5,20.6-45.7,22.3-46.7c0,0,0,0,0,0
		c17.3-6.3,48.8-11.8,48.8-11.8s55.8,7.9,59.3,10.7c0,0,0,0,0,0c0,0,0,0,0.1,0.1c0,0,0,0,0,0s0,0,0,0c0,0,0.1,0.1,0.3,0.3
		c0,0,0,0,0,0c2.6,2.7,18.8,20.2,22.2,28.4C382.3,105.1,380.5,137.5,380.5,137.5z"/>
	<path class="st8" d="M217.4,157.2c-6.2,30.2-25.9,65.6-17.8,85.1s16.1,20.4,22.3,21.3s40.1,0,40.1,0l6.2-8.9l74-1.8
		c0,0,22.3,8,30.3,6.2c8-1.8,20.5-9.8,23.2-30.2s3.6-37.2-1.8-56.8c-5.4-19.5-12.4-41.9-12.4-41.9l-154.4,2L217.4,157.2z"/>
	<ellipse class="st0" cx="223.8" cy="201.5" rx="17.1" ry="18.9"/>
	<ellipse class="st0" cx="372.4" cy="204.2" rx="17.1" ry="18.9"/>
	<path class="st0" d="M503.8,400.5c-15.3,2.7-102.6,3.6-113.4,4.5c-10.8,0.9-29.7,0.9-38.7,3.6s-28.8,9.9-27.9,15.3
		c0.9,5.4,61.2,4.5,72,5.4s81.9,3.6,96.3,0.9c14.4-2.7,38.7-4.6,39.1-14C531.7,406.8,503.8,400.5,503.8,400.5z"/>
	<path class="st4" d="M459.7,522.9c-1.8-3.8-4.3-25.9-7.1-25.9s44-4.7,44-4.7l7.3,19L459.7,522.9z"/>
	<path class="st15" d="M462.8,511.2c-0.2,0-0.4,0-0.4,0C462.2,511,462.4,511,462.8,511.2z"/>
	<path class="st15" d="M588.3,552.1c-15.6,9.5-118.7,23.9-118.7,23.9s0.9-6.4,1.7-14.3c1-10.8,1.6-24.5-1.2-28.6
		c-5.1-7.5-18.5-9.3-20.2-10.2c0.4,0,11.8-5.2,12.6-5.4c7.2-1.9,28.7-15.7,28.7-15.7l101.7-7.6C598.4,498.9,603.9,542.6,588.3,552.1
		z"/>
	<path class="st17" d="M529,337.4c-2.7-1.8-8.1-3.6-8.1-3.6s-13.5,14.4-16.2,16.2c-2.7,1.8-3.6,2.7-1.8,3.6
		c1.8,0.9,21.6-0.9,21.6-0.9L529,337.4z"/>
	<path class="st13" d="M523.6,314.9c0,4.5-0.9,19.8-1.8,22.5s23.4,0.9,24.3,0s18-8.1,19.8-9s2.7-6.3,3.6-6.3s-3.6-9-1.8-20.7
		S523.6,314.9,523.6,314.9z"/>
	<path class="st8" d="M606.5,199.7v13.5c0,0-3.4,16.2-3.4,18.9c0,2-3.8,14.5-6.8,21.5c-0.4,4.7-1.1,9.3-2.1,13.7
		c-0.2,1-0.9,2.9-1.8,5.1c-0.8,2.1-1.8,4.4-2.9,6.7c-2.3,1.5-3.8,2.8-3.6,3.4c0.9,1.8-12.9,3.6-12.9,3.6s4.3-63.9,4.3-65.7
		c0-1.8,0-24.3,0-24.3l2.3-12.7l0.3-1.5l25.5,8.1l0,0l0,0.1L606.5,199.7z"/>
	<path class="st8" d="M624.8,231.2c-2.3,4.5-23.5,38.7-24.2,39.6c-0.5,0.6-7.7,5-12,8.3c0.9-2.3,1.8-4.6,2.5-6.7
		c0.8-2.2,1.4-4.1,1.6-5.1c0.9-4.4,1.5-9,1.9-13.7c2.7-7,6-19.5,6-21.5c0-2.7,3-18.9,3-18.9v-13.5l-1-9.5l0-0.1l29,10.6
		C632.4,204.2,627.1,226.7,624.8,231.2z"/>
	<linearGradient id="SVGID_7_" gradientUnits="userSpaceOnUse" x1="529.9401" y1="213.9932" x2="533.842" y2="339.1558">
		<stop  offset="0" style="stop-color:#F8CE98"/>
		<stop  offset="0.2795" style="stop-color:#F7C992"/>
		<stop  offset="0.6341" style="stop-color:#F5BA83"/>
		<stop  offset="1" style="stop-color:#F3A36B"/>
	</linearGradient>
	<path class="st18" d="M606.5,199.7V212c-2.2,0.5-4.9,1-6.6,5.3c-2.3,5.7-2.9,11.1-3.4,16.2c0,0.5-0.1,0.9-0.1,1.3
		c0.2-0.1,0.4-0.2,0.6-0.3c0,0.5,0,1,0,1.5c0,5.8-0.1,11.7-0.7,17.5c-0.4,4.7-1.1,9.3-2.1,13.7c-0.2,1-0.9,2.9-1.8,5.1
		c-0.8,2.1-1.8,4.4-2.9,6.7c-1.7,3.6-3.4,6.9-4.4,8.2c-10.4,13-43.3,29.6-75.4,31.2c-18.7,0.9-36.6-14.4-42.6-23.4
		c-6.6-9.9-12-27.1-12.7-36.4c-0.9-12,5.4-19.3,3.6-28.5c-0.7-3.7-0.6-9.1-0.1-14.4c0.4-4.2,1-8.2,1.5-11.4c0.3-0.5,0.7-0.9,1-1.4
		c-1.1-1.6-2-3.6-3.3-7.8c-1.8-5.5,2.7-11,4.5-14.7c1.8-3.7,10.7-12.9,20.5-22.1c9.8-9.2,25.9-8.3,31.2-10.1
		c3.7-1.3,17.8,2.7,26.4,5.3c1.1-0.2,2.1-0.4,3.1-0.7c12.5-2.8,32.1,4.6,43.7,8.3c9.7,3.1,11.9,7.5,17.1,23.5
		c0.5,1.6,1.1,3.4,1.7,5.3c0,0,0,0.1,0,0.1L606.5,199.7z"/>
	<path class="st0" d="M623.2,240.6c-0.7-6.1-8.4-15.5-18.4-11.7c0,0-5.2,2.5-8.9,4.6c0,0.5-0.1,0.9-0.1,1.3c0.2-0.1,0.4-0.2,0.6-0.3
		c0,0.5,0,1,0,1.5c0,10.4-0.5,21.3-2.9,31.2c-0.3,1-1,2.9-1.9,5.1c3.9-0.8,8.8-2.4,13.1-3.7C612.6,266.4,623.9,247.6,623.2,240.6z
		 M611.5,243.1l-0.3,0.3c0.1,0.1,0.1,0.3,0.2,0.4c0.2,0.7,0,1.4-0.2,2.1c-1.1,3.4-3,6.6-5.5,9.4c-1.5,1.7-3.4,3.3-5.8,3.6
		c1.4-0.5,2.7-1.1,3.8-2c1.1-0.9,1.9-2.1,2-3.4c0.1-1.5-0.8-2.9-1.7-4.2c-0.2-0.2-0.3-0.5-0.3-0.8c0-0.2,0.1-0.4,0.2-0.6
		c0.6-1.1,1.3-2.2,1.9-3.3c0.6-1.1,1.3-2.3,2.5-3.1c0.7-0.5,1.8-0.8,2.6-0.5C611.8,241.4,612.2,242.5,611.5,243.1z"/>
	<path class="st0" d="M611.5,243.1l-0.3,0.3c0.1,0.1,0.1,0.3,0.2,0.4c0.2,0.7,0,1.4-0.2,2.1c-1.1,3.4-3,6.6-5.5,9.4
		c-1.5,1.7-3.4,3.3-5.8,3.6c1.4-0.5,2.7-1.1,3.8-2c1.1-0.9,1.9-2.1,2-3.4c0.1-1.5-0.8-2.9-1.7-4.2c-0.2-0.2-0.3-0.5-0.3-0.8
		c0-0.2,0.1-0.4,0.2-0.6c0.6-1.1,1.3-2.2,1.9-3.3c0.6-1.1,1.3-2.3,2.5-3.1c0.7-0.5,1.8-0.8,2.6-0.5
		C611.8,241.4,612.2,242.5,611.5,243.1z"/>
	<path class="st13" d="M611.5,243.1l-0.3,0.3c0.1,0.1,0.1,0.3,0.2,0.4c0.2,0.7,0,1.4-0.2,2.1c-1.1,3.4-3,6.6-5.5,9.4
		c-1.5,1.7-3.4,3.3-5.8,3.6c1.4-0.5,2.7-1.1,3.8-2c1.1-0.9,1.9-2.1,2-3.4c0.1-1.5-0.8-2.9-1.7-4.2c-0.2-0.2-0.3-0.5-0.3-0.8
		c0-0.2,0.1-0.4,0.2-0.6c0.6-1.1,1.3-2.2,1.9-3.3c0.6-1.1,1.3-2.3,2.5-3.1c0.7-0.5,1.8-0.8,2.6-0.5
		C611.8,241.4,612.2,242.5,611.5,243.1z"/>
	<linearGradient id="SVGID_8_" gradientUnits="userSpaceOnUse" x1="590.8912" y1="234.2106" x2="590.8912" y2="234.2106">
		<stop  offset="0" style="stop-color:#F8CE98"/>
		<stop  offset="0.2795" style="stop-color:#F7C992"/>
		<stop  offset="0.6341" style="stop-color:#F5BA83"/>
		<stop  offset="1" style="stop-color:#F3A36B"/>
	</linearGradient>
	<path class="st19" d="M590.9,234.2"/>
	<path class="st20" d="M512.7,237.5"/>
	<g class="st21">
		<image style="overflow:visible;" width="106" height="94" xlink:href="CE8847A1.png"  transform="matrix(1 0 0 1 490 213)">
		</image>
	</g>
	<g class="st21">
		<image style="overflow:visible;" width="89" height="91" xlink:href="CE8847A3.png"  transform="matrix(1 0 0 1 421 208)">
		</image>
	</g>
	<path class="st22" d="M545.4,250.5c-3.7,2.5-8,5.2-17.6,5c-1.3,0-2.7-0.1-4.2-0.2c-2.8-0.2-4.8-1.1-6.3-2.3
		c-2.2-1.8-3.2-4.2-3.6-6.1c-0.3-1.7-0.2-3.4,0.4-5c1-2.8,2.6-6.5,5.3-9.6c3.4-3.8,15-3.3,19-2C547.8,233.1,549.6,247.6,545.4,250.5
		z"/>
	<path class="st22" d="M459.4,242.4c0,0,0-7.6,6-9.5s10.3,5.7,10.3,9.5s0,8.5-3.4,8.5S460.3,251.9,459.4,242.4z"/>
	<g>
		<path class="st23" d="M481.6,282.1c0.1,0.8,0.1,1.9,0.1,3c0,1.8-0.1,3.7,0.1,5c0.3,1.7,3.1,5.8,6.6,7.6c0.7,0.4,1.5,0.6,2.3,0.7
			c2.9,0.4,3.9,0.6,7.3,0.1c0.8-0.1,1.6,0,5.6-2.2c2.8-1.5,4.8-3.6,6.4-5.7c1.7-2.2,2.9-4.4,3.8-5.8l2.1-3.4l0.3-0.5l0.4-0.7
			c0,0,0-0.1,0-0.1l-2.3,0.7l0,0l-2.8,0.8l-2,0.6c0,0,0,0,0,0l-1.7,1.1l-3,1.9c-0.2,0.1-0.5,0.2-0.7,0.2c-0.9-0.1-3.1-0.3-3.7,0.5
			c-0.3,0.3-3.2-0.1-6.6-0.9l-3.9-0.9l0,0C485.9,283.1,482.2,282.1,481.6,282.1C481.6,282,481.6,282,481.6,282.1z"/>
		<path class="st24" d="M481,281.1c0.1,0.8,0,1.2-0.1,2.3c0.6,0.8,1,0.8,3.4,1.8c4.3,1.8,7.7,1.8,12,1.8c6,0,10.8-2,12.9-2.7
			c2-0.7,5.1-2.7,6.8-4c0.2-0.1,0.3-0.2,0.4-0.3c0.2-0.1,0.2-0.2-0.1-0.3c-0.4-0.1-7,1.5-8.8,1.8c-0.7,0.1-15.5,0.9-17.2,0.9
			C490.1,282.5,481.6,281.2,481,281.1C481,281,481,281.1,481,281.1z"/>
		<path class="st25" d="M488.4,297.6c0.7,0.4,1.5,0.6,2.3,0.7c2.9,0.4,3.9,0.6,7.3,0.1c0.8-0.1,1.6,0,5.6-2.2
			c2.8-1.5,4.8-3.6,6.4-5.7c-2.5,0-6.1-0.2-8.7,0.5c-3.6,0.9-7.2,1.8-9.5,3.2C490.5,294.9,489.3,296.4,488.4,297.6z"/>
	</g>
	<path class="st23" d="M516.7,280"/>
	<path class="st26" d="M533.4,245.6c0,4.4-2.3,8.2-5.5,9.9c-1.3,0-2.7-0.1-4.2-0.2c-2.8-0.2-4.8-1.1-6.3-2.3
		c-1.6-1.9-2.5-4.5-2.5-7.4c0-6,4.1-10.8,9.2-10.8C529.2,234.8,533.4,239.6,533.4,245.6z"/>
	<ellipse class="st26" cx="466.1" cy="243.8" rx="5.8" ry="7.2"/>
	<g>
		<path class="st8" d="M514.8,239.7c0.6-3.5,3-6.6,6-8.7c3-2.1,6.7-3.1,10.3-3.3c1.8-0.1,3.7,0,5.6,0.6c1.8,0.6,3.5,1.5,4.9,2.7
			c2.9,2.4,4.5,5.6,6,8.8c-2.3-2.6-4.5-5.4-7.2-7.2c-2.7-1.8-5.9-2.6-9.1-2.3c-3.3,0.2-6.6,1-9.5,2.5
			C518.9,234.2,516.4,236.6,514.8,239.7z"/>
	</g>
	<g>
		<path class="st8" d="M475.1,239.2c-1.2-1.2-2.3-2.5-3.5-3.4c-1.2-1-2.4-1.7-3.6-1.8c-1.1,0-2.7,0.6-4,1.2
			c-1.4,0.7-2.7,1.5-3.7,2.9c0.1-1.8,1.3-3.4,2.6-4.5c0.7-0.6,1.5-1,2.3-1.4c0.7-0.4,1.9-0.7,2.9-0.7c1.1,0.1,2.1,0.4,2.9,1
			c0.8,0.5,1.5,1.2,2,1.9C474.1,235.8,474.8,237.4,475.1,239.2z"/>
	</g>
	<ellipse class="st8" cx="523.1" cy="244.7" rx="3.4" ry="4.5"/>
	<ellipse class="st27" cx="526.5" cy="242" rx="2.6" ry="1.8"/>
	<ellipse class="st8" cx="464.6" cy="244.2" rx="2.1" ry="3.2"/>
	<ellipse class="st27" cx="468" cy="241.5" rx="1.7" ry="1.4"/>
	<path class="st8" d="M606.5,199.7v13.5c0,0-3.6,16.2-3.6,18.9c0,2-4,14.5-7.2,21.5c-1.1,2.4-2.1,4.1-2.7,4.6
		c-2.7,1.8-8.1,2.7-5.4,0.9s2.7-18,3.6-29.7s-7.2-30.6-7.2-30.6l-5.7-15.4l-4.2-11.6l29.4,13l1.2,0.5l0.6,4.8l0,0.1L606.5,199.7z"/>
	<g>
		<path class="st0" d="M461.6,233.4c0.8-1,1.7-1.9,2.8-2.6c1.1-0.7,2.3-1.3,3.7-1.4c1.4-0.1,2.7,0.4,3.8,1.2
			c1.1,0.8,1.9,1.7,2.6,2.9c-0.9-0.9-1.9-1.7-2.9-2.3c-0.5-0.3-1.1-0.5-1.6-0.7c-0.6-0.2-1.1-0.2-1.7-0.2c-0.6,0-1.2,0.2-1.7,0.4
			c-0.6,0.2-1.1,0.5-1.7,0.7C463.6,232,462.6,232.7,461.6,233.4z"/>
	</g>
	<g>
		<path class="st0" d="M514.9,234.3c1.9-2.5,4.2-4.9,6.9-6.6c1.4-0.9,2.8-1.5,4.4-2.1c1.6-0.5,3.2-0.8,4.8-0.8
			c3.3,0,6.5,0.9,9.3,2.4c2.8,1.6,5.3,3.6,7.3,6.1c-1.1-1.1-2.3-2.1-3.6-3c-1.3-0.9-2.6-1.7-4-2.4c-2.8-1.4-5.9-2.2-9-2.2
			c-1.5,0-3.1,0.3-4.6,0.7c-1.5,0.5-2.9,1.1-4.3,1.9C519.4,229.9,517.1,232,514.9,234.3z"/>
	</g>
	<path class="st8" d="M515.7,211.1c-0.9,1.4-0.9,3.6,0,3.6s8.6-2.1,15.5-0.7s15.5,6.4,17.2,6.4s-4.7-4.6-9-7.5c-1.5-1-9-4.6-15-4.6
		C518.3,208.2,515.7,211.1,515.7,211.1z"/>
	<path class="st8" d="M474.2,214.9c0.6,1.1,0.6,2.8,0,2.8c-0.6,0-4.8-2.1-9.7-1c-4.9,1.1-4.8,3.6-6,3.6s1.7-3.6,2.6-4.5
		c0.9-1,2.7-3.2,7-3.2S474.2,214.9,474.2,214.9z"/>
	<g class="st28">
		<g>
			<path class="st0" d="M478.5,265.3c0.4-0.4,1.2-0.2,1.7-0.1c0.3,0.1,0.6,0.2,0.9,0.4c0.2-0.1,0.5-0.2,0.7-0.1
				c1.3-0.1,2.4-0.1,3.7-0.6c0.1,0,0.1-0.4,0-0.4c-0.8,0-1.5,0.1-2.2-0.1c-0.9-0.2-1.4-0.6-2.2-1c-1.2-0.6-2.1-0.3-2.7,0.8
				C478.3,264.4,478.4,265.4,478.5,265.3L478.5,265.3z"/>
		</g>
	</g>
	<g class="st28">
		<g>
			<path class="st0" d="M481.8,265.5c2.4,1.8,3.9,1.8,6.6,0.7c1.3-0.5,2.2-0.7,3.5-0.5c1.4,0.3,1.6,0,2.7-0.8
				c2.6-1.9,3.2-4.7,2.2-7.7c0-0.1-0.1,0.3-0.1,0.4c-0.1,1.6-0.3,3.1-0.4,4.7c-0.3,0.4-0.7,0.7-1.1,0.9c-0.9,0.4-0.8,0.2-1.7,0.1
				c-1.4-0.2-2.6-0.6-4,0.1c-1.2,0.6-2,1.9-3.4,2.2c-1.5,0.3-2.9-0.4-4.3-0.9C481.8,264.8,481.7,265.4,481.8,265.5L481.8,265.5z"/>
		</g>
	</g>
	<g class="st21">
		<image style="overflow:visible;" width="75" height="83" xlink:href="CE8847A6.png"  transform="matrix(1 0 0 1 442 211)">
		</image>
	</g>
	<g class="st21">
		<image style="overflow:visible;" width="75" height="78" xlink:href="CE8847A7.png"  transform="matrix(1 0 0 1 448 231)">
		</image>
	</g>
	<g class="st21">
		<image style="overflow:visible;" width="74" height="77" xlink:href="CE8847A2.png"  transform="matrix(1 0 0 1 449 232)">
		</image>
	</g>
	<g class="st21">
		<image style="overflow:visible;" width="87" height="78" xlink:href="CE8847AD.png"  transform="matrix(1 0 0 1 441 227)">
		</image>
	</g>
	<g class="st21">
		<image style="overflow:visible;" width="89" height="76" xlink:href="CE8847AE.png"  transform="matrix(1 0 0 1 442 228)">
		</image>
	</g>
	<g class="st21">
		<image style="overflow:visible;" width="89" height="78" xlink:href="CE8847AF.png"  transform="matrix(1 0 0 1 445 227)">
		</image>
	</g>
	<g class="st21">
		<image style="overflow:visible;" width="76" height="82" xlink:href="CE8847A4.png"  transform="matrix(1 0 0 1 440 219)">
		</image>
	</g>
	<g class="st21">
		<image style="overflow:visible;" width="89" height="77" xlink:href="D9B25A5A.png"  transform="matrix(1 0 0 1 438 227)">
		</image>
	</g>
	<path class="st4" d="M628.6,227.8c0.2-1.4-10.1-8.3-22-15.7c-15.8-9.9-34.3-20.6-34.3-20.6l-116.2-2.6c0,0,4.5-44.7,10.8-57.7
		s35.1-25,82.8-23.2c19.8,0.7,31.6,3,39.9,6.3c11.8,4.6,16.3,10.9,25.8,17c16.2,10.3,25.2,33.6,26.1,51.6S628.1,231,628.6,227.8z"/>
	<linearGradient id="SVGID_9_" gradientUnits="userSpaceOnUse" x1="532.8255" y1="139.8777" x2="530.7267" y2="224.2925">
		<stop  offset="0" style="stop-color:#F2F2F2"/>
		<stop  offset="0.3095" style="stop-color:#ECECEC"/>
		<stop  offset="0.7015" style="stop-color:#DDDDDD"/>
		<stop  offset="1" style="stop-color:#CCCCCC"/>
	</linearGradient>
	<path class="st29" d="M606.5,212.1c-15.8-9.9-34.3-20.6-34.3-20.6l-116.2-2.6c0,0,4.5-44.7,10.8-57.7s35.1-25,82.8-23.2
		c19.8,0.7,31.6,3,39.9,6.3c6.8,9.7,16.2,35.8,16.8,43.6C607.3,167.9,606.8,202.6,606.5,212.1z"/>
	<path class="st8" d="M607.4,209.6"/>
	<path class="st4" d="M608.3,214.1c0-2.6-37.2-45.9-85.7-45.9s-82.2,6.2-86.6,16.8c-4.3,10.6,14.7,23,19.9,23.8s2.6,1.5,2.6,1.5
		s2.5-15.6,17.3-16.5c14.7-0.9,46.7-1.8,58.9,0.9C546.8,197.3,608.3,214.1,608.3,214.1z"/>
	<g>
		<path class="st30" d="M497.9,153.7c0.5-0.2,1.4-0.4,1.9-0.6c0.8-0.4,1.3-0.9,1.9-1.5c0.4,0,0.6,0,0.7,0c0.1,0,0.1,0.1,0.2,0.2
			c0.5,0.9,3,2.1,5.2,2.2c1.5,0,3.3-0.8,3.9-2.3c0.8-0.6,1.2-1.7,1.5-2.6c0.5-0.9,1-1.3,1.2-2.7c0.3-0.6,0.6-1.2,0.6-2.7
			c2.7-3.1,0.6-6.9-1-10c0.8,2.6,1.3,6.7,0.1,7.3c-0.9,0.7-2.5,0.3-3.5-0.3c-1.2-0.8-2.4-2-4.2-2.1c-0.2,0-0.4,0-0.7,0.1
			c-0.4,0.1-0.9,0.3-1.3,0.7c-0.9,1-0.6,2.2-0.3,3.5c0.3,1-0.3,1.6-1,1.7c0.1-1.3-0.1-2.8-0.8-4.2c2.9-10.8,4.7-15,5.7-14
			c-1.1-0.8-2.2-1.8-3.7-1.3c-0.5-1-1-1.7-2.7-1.7c-0.2-0.4-0.9-1-1.5-1.5c-0.7,0.4-1.5,0.9-1.7,1.3c-1.7-0.2-2.3,0.4-2.9,1.3
			c-1.5-0.8-2.7,0.1-3.9,0.7c1.1-0.8,2.3,3.6,3.5,14.7c-0.9,1.2-1.3,2.7-1.4,4c-0.6-0.2-1.1-0.9-0.7-1.8c0.5-1.2,1-2.3,0.2-3.5
			c-0.4-0.6-0.8-0.8-1.2-0.9c-0.2-0.1-0.4-0.1-0.6-0.2c-1.8-0.2-3.1,0.8-4.5,1.4c-1.1,0.5-2.7,0.6-3.5-0.2c-1-0.8,0-4.8,1.3-7.2
			c-2,2.8-4.8,6.2-2.6,9.7c-0.2,1.4,0,2.1,0.2,2.7c-0.1,1.4,0.4,1.9,0.8,2.8c0.2,1,0.4,2.1,1.1,2.8c0.4,1.6,2,2.7,3.5,2.9
			c2.2,0.3,4.9-0.5,5.5-1.3c0.2-0.3,0.3-0.1,1,0c0.5,0.7,1,1.3,1.7,1.8C496.6,153.1,497.4,153.4,497.9,153.7z"/>
		<path class="st31" d="M515.2,143.6c-2.1,0.7-2.8,0.6-3.4,0.5"/>
		<path class="st32" d="M482.4,141c2,1,2.6,1,3.2,1"/>
		<path class="st31" d="M514.8,145.7c-1,0.8-2.4,1.1-3.5,0.9"/>
		<path class="st31" d="M482.5,143.1c0.9,0.9,2.2,1.4,3.3,1.4"/>
		<path class="st31" d="M513.5,148.7c-0.8,0.6-2.1,0.7-3.2,0.5"/>
		<path class="st31" d="M483.3,146.3c0.7,0.7,1.9,1.1,3.1,1"/>
		<path class="st32" d="M512.2,151.3c-1,0.3-2.1,0.4-3.1,0.2"/>
		<path class="st31" d="M484.2,149.1c0.9,0.5,2,0.8,3,0.7"/>
		<path class="st31" d="M508.5,139.1c-2.8-0.4-3.1,1.5-2.4,4c0.8,2.1,0.6,3.1,0.5,4.1c-0.7,2.9-2.4,3.6-4.1,4.3"/>
		<path class="st32" d="M489.7,137.6c2.9,0.1,2.9,2,1.8,4.4c-1.1,1.9-1.1,2.9-1.1,4c0.2,3,1.8,3.9,3.4,4.9"/>
		<path class="st32" d="M499.2,137.2c-0.4-1.6-1.4-1.9-1.2-3.4c0.2-1.1,0.9-1.7,1.7-2.5c0.6,0.9,1.3,1.6,1.3,2.7
			C500.9,135.5,499.9,135.7,499.2,137.2z"/>
		<path class="st33" d="M498.4,147.7c0.6,0.1,0.9,0.5,0.8,1.1c1.1-0.5,1.7-1.2,1.9-2.3c0.5-3-2.3-5.1-2-8.1
			c-0.2,3.1-3.2,4.7-3.3,7.7c0,1.1,0.5,1.9,1.5,2.6C497.4,148.1,497.8,147.7,498.4,147.7z"/>
		<path class="st34" d="M497.7,156.8c-1.3-1.2-3.1-2-4.9-1.7c-2.3,0.4-2.2,2.1-5.3,2.3c0-0.9,0.1-1.8,0.1-2.7c2.3,0,2.5-1.4,4.7-1.8
			c2.7-0.4,4.2,0.6,5.5,1.6c1.5-0.8,3.1-1.5,5.7-0.7c2.1,0.7,2.1,2.2,4.4,2.5c-0.1,0.8-0.2,1.8-0.3,2.7c-3-0.7-2.6-2.3-4.9-3.1
			C501.1,155.3,499.1,155.7,497.7,156.8z"/>
		<path class="st34" d="M507.6,159c0.3,0.5,0.5,0.8,0.7,1.3c-1.2-0.2-2-0.1-2.8-0.7c-1.1-0.7-2-1.8-3.2-2.3c-1.7-0.6-3.2,0-4.8,1
			c-1.4-1.3-2.7-2.1-4.5-1.8c-1.3,0.3-2.3,1.2-3.6,1.8c-0.9,0.5-1.7,0.3-2.9,0.3c0.3-0.5,0.6-0.7,0.9-1.2c3.1-0.2,3-1.9,5.3-2.3
			c1.8-0.3,3.6,0.4,4.9,1.7c1.5-1,3.4-1.5,5.1-0.9C505,156.7,504.6,158.3,507.6,159z"/>
		<line class="st31" x1="501.9" y1="123.2" x2="501" y2="131.4"/>
		<line class="st31" x1="498.7" y1="123" x2="498.3" y2="131.2"/>
		<line class="st31" x1="504.7" y1="124.9" x2="502.5" y2="133.1"/>
		<line class="st31" x1="495.7" y1="124.2" x2="496.6" y2="132.6"/>
		<path class="st31" d="M500.8,134.8c0,1.5-0.2,3.7-0.2,5.2c-0.1,1.8,1.8,2.7,2.6,4.6"/>
		<path class="st31" d="M498,134.6c-0.2,1.5-0.4,3.7-0.6,5.2c-0.2,1.7-2.2,2.4-3.3,4.1"/>
		<path class="st31" d="M500.6,138.2c0.9,0.7,1.6,1.3,2,2.2"/>
		<path class="st32" d="M497.7,137.9c-1,0.6-1.8,1.1-2.3,1.9"/>
		<g>
			<polygon class="st35" points="498.2,146.8 498.1,146.6 498.2,146.4 498.3,146.2 498.4,146.1 498.5,145.9 498.6,145.7 
				498.7,145.5 498.7,145.2 498.7,145 498.8,144.8 498.8,144.6 498.8,144.3 498.8,144.1 498.8,143.8 498.8,143.5 498.7,143.3 
				498.7,143 498.7,142.7 498.7,142.4 498.7,142.2 498.6,141.9 498.6,141.6 498.6,141.3 498.6,141 498.6,140.7 498.6,140.5 
				498.7,140.2 498.7,139.9 498.8,139.6 498.8,139.3 498.9,139 499,138.8 499.1,138.5 499.4,138.6 499.3,138.9 499.2,139.1 
				499.1,139.4 499,139.7 499,139.9 498.9,140.2 498.9,140.5 498.9,140.7 498.9,141 498.9,141.3 498.9,141.6 498.9,141.9 
				498.9,142.1 498.9,142.4 499,142.7 499,143 499,143.2 499,143.5 499,143.8 499,144 499,144.3 499,144.6 499,144.8 499,145.1 
				499,145.3 498.9,145.5 498.8,145.8 498.8,146 498.7,146.2 498.5,146.4 498.4,146.6 			"/>
		</g>
		<g>
			<path class="st35" d="M499.1,149.6l-0.3-0.1l0.1,0.2l0,0l0,0l0,0l0,0l0,0l0,0l0,0l0,0l0,0l0,0l0,0l0,0l0,0l0,0l0,0l0,0l0,0l0,0
				l0,0l0,0l0,0l0,0l0,0l0,0l0,0l0,0l0,0l0,0l0,0l0,0l0,0l0,0l0-0.3l0,0l0,0l0,0l0,0l0,0l0,0l0,0l0,0l0,0l0,0l0,0l0,0l0,0l0,0l0,0
				l0,0l0,0l0,0l0,0l0,0l0,0l0,0l0,0l0,0l0,0l0,0l0,0l0,0l0,0l0,0l0,0l0,0L499.1,149.6L499.1,149.6z M499,149.4l0.1,0l0,0.2
				L499,149.4L499,149.4z M498.9,151.2l-0.1,0.3l-0.1-0.1l0-0.1l0-0.1l0-0.1l0-0.1l0-0.1l0-0.1l0-0.1l0-0.1l0-0.1l0-0.1l0-0.1l0-0.1
				l0-0.1l0-0.1l0-0.1l0-0.1l0-0.1l0-0.1l0-0.1l0-0.1l0-0.1l0-0.1l0-0.1l0-0.1l0-0.1l0-0.1l0-0.1l0-0.1l0-0.1l0-0.1l0-0.1l0-0.1
				l0.3,0.1l0,0.1l0,0.1l0,0.1l0,0.1l0,0.1l0,0.1l0,0.1l0,0.1l0,0.1l0,0.1l0,0.1l0,0.1l0,0.1l0,0.1l0,0.1l0,0.1l0,0.1l0,0.1l0,0.1
				l0,0.1l0,0.1l0,0.1l0,0.1l0,0.1l0,0.1l0,0.1l0,0.1l0,0.1L498.9,151.2L498.9,151.2L498.9,151.2l0.1,0.1L498.9,151.2L498.9,151.2z
				 M498.8,151.4L498.8,151.4l-0.1-0.1L498.8,151.4L498.8,151.4z M499.4,151.7l-0.2-0.2l0,0.2l0,0l0,0l0,0l0,0l0,0l0,0l0,0l0,0l0,0
				l0,0l0,0l0,0l0,0l0,0l0,0l0,0l0,0l0,0l0,0l0,0l0,0l0,0l0,0l0,0l0,0l0,0l0,0l0,0l0,0l0,0l0,0l0,0l0.1-0.3l0,0l0,0l0,0l0,0l0,0l0,0
				l0,0l0,0l0,0l0,0l0,0l0,0l0,0l0,0l0,0l0,0l0,0l0,0l0,0l0,0l0,0l0,0l0,0l0,0l0,0l0,0l0,0l0,0l0,0l0,0l0,0l0,0L499.4,151.7
				L499.4,151.7z M499.4,151.4l0.2,0.1l-0.1,0.1L499.4,151.4L499.4,151.4z M498.8,152.5l-0.2-0.2l0,0l0,0l0,0l0,0l0,0l0,0l0,0l0,0
				l0,0l0,0l0,0l0,0l0,0l0,0l0,0l0,0l0,0l0,0l0,0l0,0l0,0l0,0l0,0l0,0l0,0l0,0l0,0l0,0l0,0l0,0l0,0l0,0l0,0l0.2,0.2l0,0l0,0l0,0l0,0
				l0,0l0,0l0,0l0,0l0,0l0,0l0,0l0,0l0,0l0,0l0,0l0,0l0,0l0,0l0,0l0,0l0,0l0,0l0,0l0,0l0,0l0,0l0,0l0,0L498.8,152.5L498.8,152.5
				L498.8,152.5L498.8,152.5L498.8,152.5L498.8,152.5z M497.9,153.2l0.2-0.2l-0.2,0l0,0l0,0l0,0l0,0l0,0l0,0l0,0l0,0l0,0l0,0l0,0
				l0,0l0,0l0,0l0,0l0,0l0,0l0,0l0,0l0,0l0,0l0,0l0,0l0,0l0,0l0,0l0,0l0,0l0,0l0,0l0,0l0,0l0.2,0.2l0,0l0,0l0,0l0,0l0,0l0,0l0,0l0,0
				l0,0l0,0l0,0l0,0l0,0l0,0l0,0l0,0l0,0l0,0l0,0l0,0l0,0l0,0l0,0l0,0l0,0l0,0l0,0l0,0l0,0l0,0l0,0l0,0L497.9,153.2L497.9,153.2z
				 M498,153.2l-0.1,0.1l-0.1-0.1L498,153.2L498,153.2z M497.2,152.4l0.2-0.2v0l0,0l0,0l0,0l0,0l0,0l0,0l0,0l0,0l0,0l0,0l0,0l0,0
				l0,0l0,0l0,0l0,0l0,0l0,0l0,0l0,0l0,0l0,0l0,0l0,0l0,0l0,0l0,0l0,0l0,0l0,0l0,0l0,0l-0.2,0.2l0,0l0,0l0,0l0,0l0,0l0,0l0,0l0,0
				l0,0l0,0l0,0l0,0l0,0l0,0l0,0l0,0l0,0l0,0l0,0l0,0l0,0l0,0l0,0l0,0l0,0l0,0l0,0l0,0L497.2,152.4L497.2,152.4L497.2,152.4
				L497.2,152.4L497.2,152.4L497.2,152.4z M496.8,151.2l0.1,0.3l0.1-0.2l0,0l0,0l0,0l0,0l0,0l0,0l0,0l0,0l0,0l0,0l0,0l0,0l0,0l0,0
				l0,0l0,0l0,0l0,0l0,0l0,0l0,0l0,0l0,0l0,0l0,0l0,0l0,0l0,0l0,0l0,0l0,0l0,0l-0.2,0.2l0,0l0,0l0,0l0,0l0,0l0,0l0,0l0,0l0,0l0,0
				l0,0l0,0l0,0l0,0l0,0l0,0l0,0l0,0l0,0l0,0l0,0l0,0l0,0l0,0l0,0l0,0l0,0l0,0l0,0l0,0l0,0l0,0L496.8,151.2L496.8,151.2z
				 M496.7,151.4l-0.1-0.2l0.2-0.1L496.7,151.4L496.7,151.4z M497.2,151.1l0.2,0.1l-0.1,0.1l0,0l0,0l0,0l0,0l0,0l0,0l0,0l0,0l0,0
				l0,0l0,0l0,0l0,0l0,0l0,0l0,0l0,0l0,0l0,0l0,0l0,0l0,0l0,0l0,0l0,0l0,0l0,0l0,0l0,0l0,0l0,0l0,0l-0.1-0.3l0,0l0,0l0,0l0,0l0,0
				l0,0l0,0l0,0l0,0l0,0l0,0l0,0l0,0l0,0l0,0l0,0l0,0l0,0l0,0l0,0L497.2,151.1L497.2,151.1L497.2,151.1L497.2,151.1L497.2,151.1
				L497.2,151.1L497.2,151.1L497.2,151.1L497.2,151.1L497.2,151.1L497.2,151.1L497.2,151.1L497.2,151.1L497.2,151.1z M497.5,151.2
				L497.5,151.2L497.5,151.2L497.5,151.2L497.5,151.2z M497.6,149.3l0,0.3l0.1-0.2l0,0.1l0,0.1l0,0.1l0,0.1l0,0.1l0,0.1l0,0.1l0,0.1
				l0,0.1l0,0.1l0,0.1l0,0.1l0,0.1l0,0.1l0,0.1l0,0.1l0,0.1l0,0.1l0,0.1l0,0.1l0,0.1l0,0.1l0,0.1l0,0.1l0,0.1l0,0.1l0,0.1l0,0.1
				l0,0.1l0,0.1l0,0.1l0,0.1l-0.2-0.1l0-0.1l0-0.1l0-0.1l0-0.1l0-0.1l0-0.1l0-0.1l0-0.1l0-0.1l0-0.1l0-0.1l0-0.1l0-0.1l0-0.1l0-0.1
				l0-0.1l0-0.1l0-0.1l0-0.1l0-0.1l0-0.1l0-0.1l0-0.1l0-0.1l0-0.1l0-0.1l0-0.1l0-0.1l0-0.1l0-0.1l0-0.1l0-0.1L497.6,149.3
				L497.6,149.3z M497.4,149.4l0-0.2l0.1,0L497.4,149.4L497.4,149.4z M498.3,149.2l0,0.3l0,0l0,0l0,0l0,0l0,0l0,0l0,0l0,0l0,0l0,0
				l0,0l0,0l0,0l0,0l0,0l0,0l0,0l0,0l0,0l0,0l0,0l0,0l0,0l0,0l0,0l0,0l0,0l0,0l0,0l0,0l0,0l0,0l0,0l0-0.3l0,0l0,0l0,0l0,0l0,0l0,0
				l0,0l0,0l0,0l0,0l0,0l0,0l0,0l0,0l0,0l0,0l0,0l0,0l0,0l0,0l0,0l0,0l0,0l0,0l0,0l0,0l0,0l0,0L498.3,149.2L498.3,149.2L498.3,149.2
				L498.3,149.2L498.3,149.2L498.3,149.2z M498.3,149.2L498.3,149.2L498.3,149.2L498.3,149.2z"/>
		</g>
	</g>
	<linearGradient id="SVGID_10_" gradientUnits="userSpaceOnUse" x1="456.985" y1="316.575" x2="646.4103" y2="549.0923">
		<stop  offset="0" style="stop-color:#F2F2F2"/>
		<stop  offset="0.3095" style="stop-color:#ECECEC"/>
		<stop  offset="0.7015" style="stop-color:#DDDDDD"/>
		<stop  offset="1" style="stop-color:#CCCCCC"/>
	</linearGradient>
	<path class="st36" d="M604.1,484c-0.8,4-1.8,14-3,15.5c-2.7,3.6-16.2,9-21.6,9.9s-53.1-3.6-61.2-4.5c-8.1-0.9-20.7-1.8-23.4-5.4
		c-1.3-1.7-5.4-4.5-4.1-21.9c0.5-6.6,1.2-14.3,2.1-22.2c1.8-16.9,4.1-35.1,5.6-47.7c1.7-14.3,7.2-30.8,12.4-44.1
		c5.7-14.5,11-25.2,11-25.2l1.5,0.9l1.7,1.1l44.9-15.1c0,0,2.7,1.7,6.3,4.5c7.2,5.6,17.9,15.5,18.5,25.7c0.6,10.3,5.3,74,8.3,114.6
		C603.4,475.1,603.8,479.8,604.1,484z"/>
	<path class="st17" d="M576.3,329.7c-2.9,2.4-17.5,14.5-25.6,19.4c-6.2,3.7-35.1,14.4-35.1,12.6c0-1.8,5.4-11.7,6.3-19.8
		c0.1-0.9,0.6-1.8,1.5-2.7l1.7,1.1l44.9-15.1C569.9,325.2,572.6,326.9,576.3,329.7z"/>
	<linearGradient id="SVGID_11_" gradientUnits="userSpaceOnUse" x1="528.7156" y1="321.9157" x2="556.9476" y2="356.5702">
		<stop  offset="0" style="stop-color:#F2F2F2"/>
		<stop  offset="0.3095" style="stop-color:#ECECEC"/>
		<stop  offset="0.7015" style="stop-color:#DDDDDD"/>
		<stop  offset="1" style="stop-color:#CCCCCC"/>
	</linearGradient>
	<path class="st37" d="M576.8,327.5c0,0-17.1,14.4-26.1,19.8c-5.8,3.5-31.2,13-34.7,12.8c-0.3,0-0.4-0.1-0.4-0.2
		c0-1.8,5.2-11.3,6.2-19.3c0-0.2,0-0.3,0.1-0.5c0.9-8.1,35.1-13.5,40.5-18c5.4-4.5,6.6-5.1,6.6-5.1L576.8,327.5z"/>
	
		<linearGradient id="SVGID_12_" gradientUnits="userSpaceOnUse" x1="546.5522" y1="415.117" x2="481.766" y2="407.8243" gradientTransform="matrix(0.9993 -3.766873e-02 3.766873e-02 0.9993 -19.8027 27.0691)">
		<stop  offset="0" style="stop-color:#F8CE98"/>
		<stop  offset="0.2795" style="stop-color:#F7C992"/>
		<stop  offset="0.6341" style="stop-color:#F5BA83"/>
		<stop  offset="1" style="stop-color:#F3A36B"/>
	</linearGradient>
	<path class="st38" d="M531.2,400.6c-1.7,3.7-16.6,23.2-16.6,23.2s10,17.6,17.2,16.4s25.1-26.2,25.1-26.2L531.2,400.6z"/>
	<linearGradient id="SVGID_13_" gradientUnits="userSpaceOnUse" x1="565.446" y1="348.2762" x2="537.5338" y2="445.9689">
		<stop  offset="0" style="stop-color:#E8E8E8"/>
		<stop  offset="3.310919e-02" style="stop-color:#E7E7E7"/>
		<stop  offset="0.3443" style="stop-color:#DFDFE2"/>
		<stop  offset="1" style="stop-color:#DDDDE1"/>
	</linearGradient>
	<path class="st39" d="M522.7,415.8c-9.2,0,10.8-54.9,27.9-60.3c17.1-5.4,34.2-4.5,30.6,30.6s-26.1,62.1-26.1,59.4
		S529.9,415.8,522.7,415.8z"/>
	<g>
		<path class="st0" d="M397.6,387.8c0.1,1.1-1,0-3.9-0.9c-2.9-0.9-7.4-0.6-12.1,1.7s-7.8,6.6-6.8,7.6c1,1,6.8-0.2,9.6-2.5
			s6.7-0.3,6.7-0.3l9.7,0.6L397.6,387.8z"/>
		<linearGradient id="SVGID_14_" gradientUnits="userSpaceOnUse" x1="476.8481" y1="420.1965" x2="465.1041" y2="450.5125">
			<stop  offset="0" style="stop-color:#F8CE98"/>
			<stop  offset="0.2795" style="stop-color:#F7C992"/>
			<stop  offset="0.6341" style="stop-color:#F5BA83"/>
			<stop  offset="1" style="stop-color:#F3A36B"/>
		</linearGradient>
		<path class="st40" d="M525.3,445.7c-3.9-0.2-18.8-1.8-31.1-3.3c-0.8-0.1-1.7-0.2-2.5-0.3c-6.6-0.8-12.1-1.6-14-2.1
			c0,0-46.8-13.3-58.3-20c0,0,0,0,0,0c-1.8-1.1-2.8-2-2.5-2.6c2.3-4.7,2.2-16.5,2.2-16.5s4.3,0.6,9,1.3c5.5,0.8,11.6,1.8,12.1,2.3
			c0.7,0.5,30.9,6.3,54.8,11.2c0.8,0.2,1.5,0.3,2.3,0.5c10.6,2.2,19.7,4.2,24,5.5c13.9,4.2,13.4,7.9,13.8,13.2
			C535.7,440.2,531.7,446,525.3,445.7z"/>
		
			<linearGradient id="SVGID_15_" gradientUnits="userSpaceOnUse" x1="406.9245" y1="390.1646" x2="393.0453" y2="425.9921" gradientTransform="matrix(0.9987 -5.118918e-02 5.118918e-02 0.9987 -26.1273 35.3487)">
			<stop  offset="0" style="stop-color:#F8CE98"/>
			<stop  offset="0.2795" style="stop-color:#F7C992"/>
			<stop  offset="0.6341" style="stop-color:#F5BA83"/>
			<stop  offset="1" style="stop-color:#F3A36B"/>
		</linearGradient>
		<path class="st41" d="M414,421.2c6.2-2.1,9.9-0.5,11.5-5.1c1.6-4.6,6.7-10.3-0.1-18.9s-24-10.5-32-8.3c-6.1,1.7-14,7.9-19.1,13.6
			c-3.2,3.6-9,12.5-6.5,13.9c4.6,2.5,9.8-3.2,9.8-3.2s-9.6,5.9-4.1,8.3c5.5,2.4,14.2-4.3,14.2-4.3s-7,4-4.2,5.6s16.2,0.1,21.6-0.2
			C410.4,422.3,414,421.2,414,421.2z"/>
	</g>
	<path class="st42" d="M390.4,410.4H275.1c-2,0-3.6-1.6-3.6-3.6V405c0-2,1.6-3.6,3.6-3.6h115.3c2,0,3.6,1.6,3.6,3.6v1.8
		C394,408.7,392.4,410.4,390.4,410.4z"/>
	<path class="st8" d="M411.1,419.1v12.3c0,5.3-4.5,9.6-10,9.6H161.8c-5.5,0-10-4.3-10-9.6v-12.3c0-5.3,4.5-9.6,10-9.6h239.3
		C406.6,409.5,411.1,413.8,411.1,419.1z"/>
	<path class="st8" d="M624.5,561v8.4c0,3.6-2.5,6.6-5.6,6.6H484.3c-3.1,0-5.6-3-5.6-6.6V561c0-3.6,2.5-6.6,5.6-6.6h134.6
		C621.9,554.4,624.5,557.4,624.5,561z"/>
	<path class="st43" d="M272.4,405.6l-1.7,0.2c-1.8,0.2-3.3-1.1-3.4-2.9l-9.3-106.7c-0.2-1.8,1.1-3.3,2.9-3.4l1.7-0.2
		c1.8-0.2,3.3,1.1,3.4,2.9l9.3,106.7C275.4,403.9,274.1,405.4,272.4,405.6z"/>
	<linearGradient id="SVGID_16_" gradientUnits="userSpaceOnUse" x1="300.5337" y1="150.1078" x2="296.1615" y2="321.4951">
		<stop  offset="0" style="stop-color:#F8CE98"/>
		<stop  offset="0.2795" style="stop-color:#F7C992"/>
		<stop  offset="0.6341" style="stop-color:#F5BA83"/>
		<stop  offset="1" style="stop-color:#F3A36B"/>
	</linearGradient>
	<path class="st44" d="M371.5,213.2c-2.1,31.4-28.5,44.7-52.1,49.7c-7.5,1.6-14.8,2.3-20.9,2.5c-6.2,0.2-13.7-0.5-21.7-2.2
		c-24.4-5.4-52-20.8-51.3-50c0.4-16.5,3.7-45.4,7.7-65.1c2.2-10.6,4.5-18.6,6.7-20.4c4.3-3.7,30.4-16.2,55.5-22.6c1.3,0,2.7,0,4,0.1
		c17.9,0.9,40.4,7.4,59.2,14.7h0c7.6,9.7,11.8,21.7,12.8,32.1c0.1,0.8,0.2,1.5,0.2,2.3C374.1,179,372.7,194,371.5,213.2z"/>
	<g class="st28">
		<g>
			<path class="st0" d="M289.4,221.2c0.4-0.4,1.2-0.2,1.7-0.1c0.3,0.1,0.6,0.2,0.9,0.4c0.2-0.1,0.5-0.2,0.7-0.1
				c1.3-0.1,2.4-0.1,3.7-0.6c0.1,0,0.1-0.4,0-0.4c-0.8,0-1.5,0.1-2.2-0.1c-0.9-0.2-1.4-0.6-2.2-1c-1.2-0.6-2.1-0.3-2.7,0.8
				C289.2,220.2,289.3,221.3,289.4,221.2L289.4,221.2z"/>
		</g>
	</g>
	<g class="st28">
		<g>
			<path class="st0" d="M292.7,221.4c2.4,1.8,3.9,1.8,6.6,0.7c1.3-0.5,2.2-0.7,3.5-0.5c1.4,0.3,1.6,0,2.7-0.8
				c2.6-1.9,3.2-4.7,2.2-7.7c0-0.1-0.1,0.3-0.1,0.4c-0.1,1.6-0.3,3.1-0.4,4.7c-0.3,0.4-0.7,0.7-1.1,0.9c-0.9,0.4-0.8,0.2-1.7,0.1
				c-1.4-0.2-2.6-0.6-4,0.1c-1.2,0.6-2,1.9-3.4,2.2c-1.5,0.3-2.9-0.4-4.3-0.9C292.7,220.7,292.6,221.3,292.7,221.4L292.7,221.4z"/>
		</g>
	</g>
	<g class="st21">
		<image style="overflow:visible;" width="75" height="83" xlink:href="D9B25A5D.png"  transform="matrix(1 0 0 1 253 167)">
		</image>
	</g>
	<g class="st21">
		<image style="overflow:visible;" width="75" height="77" xlink:href="D9B25A5E.png"  transform="matrix(1 0 0 1 259 187)">
		</image>
	</g>
	<g class="st21">
		<image style="overflow:visible;" width="74" height="77" xlink:href="D9B25A5C.png"  transform="matrix(1 0 0 1 260 188)">
		</image>
	</g>
	<g class="st21">
		<image style="overflow:visible;" width="87" height="78" xlink:href="D9B25A5B.png"  transform="matrix(1 0 0 1 252 183)">
		</image>
	</g>
	<g class="st21">
		<image style="overflow:visible;" width="89" height="76" xlink:href="D9B25A45.png"  transform="matrix(1 0 0 1 253 184)">
		</image>
	</g>
	<g class="st21">
		<image style="overflow:visible;" width="89" height="78" xlink:href="D9B25A46.png"  transform="matrix(1 0 0 1 256 182)">
		</image>
	</g>
	<g class="st21">
		<image style="overflow:visible;" width="76" height="82" xlink:href="D9B25A44.png"  transform="matrix(1 0 0 1 251 175)">
		</image>
	</g>
	<g class="st21">
		<image style="overflow:visible;" width="89" height="77" xlink:href="D9B25A4A.png"  transform="matrix(1 0 0 1 249 183)">
		</image>
	</g>
	<path class="st23" d="M312.9,239.3c0,1.8-0.7,3.7-2.2,5.4c-2.6,3-7.5,5.3-14.9,5.3c-4.2,0-10.3-2.7-14-5.8
		c-1.9-1.6-3.1-3.3-3.1-4.9c0-0.1,0-0.2,0-0.2c0-1,0.4-0.9,0.9-1.6c2.6-3.7,13.3-3.6,17.1-3.6c3.9,0,13.1-0.9,15.6,2.9
		c0.3,0.5,0.5,1,0.6,1.6C313,238.6,312.9,239,312.9,239.3z"/>
	<path class="st24" d="M312.3,236.7c-0.4-0.1-0.9-0.2-1.2-0.2H294c-2.4,0-5.4,0.4-8.1,0.9c0,0,0,0,0,0c-0.3,0.1-0.6,0.1-0.9,0.2
		c0,0-0.1,0-0.1,0c-1.1,0.2-2.2,0.4-3.1,0.6c-1,0.1-2,0-2.5-0.4c0.1-0.1,0.2-0.2,0.3-0.4c2.6-3.7,13.3-3.6,17.1-3.6
		C300.6,233.9,309.8,233,312.3,236.7z"/>
	<path class="st24" d="M285.9,237.5c-0.3,0.1-0.6,0.1-0.9,0.2C285.4,237.6,285.7,237.5,285.9,237.5z"/>
	<path class="st8" d="M264.4,170.2c6,0.8,5.8-5,1.7-6.2c-4.1-1.1-15.9-1.7-23.4,4.6S253.2,167.5,264.4,170.2z"/>
	<path class="st8" d="M330.5,171.1c-6,0.8-5.8-5-1.7-6.2c4.1-1.1,15.9-1.7,23.4,4.6C359.6,175.9,341.7,168.5,330.5,171.1z"/>
	<g class="st45">
		<g>
			<path d="M310.7,242.5c-7.8,8.2-20.8,5.8-28.8-0.6c0,1.5,0,3,0,4.5c8.6-5.4,20-2.9,28.8,0.6C310.5,246.9,311.5,242.8,310.7,242.5
				c-8.8-3.4-20.2-6-28.8-0.6c-0.5,0.3-0.5,4.1,0,4.5c8.1,6.4,21,8.8,28.8,0.6C311.6,246,310.2,243,310.7,242.5z"/>
		</g>
	</g>
	<g class="st46">
		<path class="st47" d="M216.6,192.5c1,0.1,2,0.5,3,1c0.9,0.5,1.8,1.1,2.6,1.8c0.4,0.4,0.8,0.7,1.1,1.2c0.2,0.2,0.4,0.5,0.5,0.7
			c0.2,0.3,0.4,0.6,0.4,1.2c0,0.2,0,0.4-0.1,0.6c0,0.2-0.3,0.5-0.4,0.6c-0.2,0.2-0.4,0.3-0.5,0.4c-0.3,0.2-0.5,0.3-0.8,0.4l-1.3,0.6
			c-0.8,0.4-1.6,0.8-2.1,1.3c-0.2,0.2-0.4,0.5-0.4,0.7c-0.1,0.3,0,0.6,0.1,1c0.2,0.7,0.7,1.6,1.3,2.3c0.6,0.8,1.3,1.5,2,2.3
			c-1-0.3-1.9-0.8-2.8-1.4c-0.9-0.6-1.7-1.3-2.3-2.4c-0.2-0.3-0.3-0.6-0.4-0.9c-0.1-0.3-0.1-0.7-0.1-1.1c0-0.7,0.4-1.5,0.8-2
			c0.8-1.1,1.9-1.6,2.8-2.1l1.4-0.6c0.2-0.1,0.4-0.2,0.5-0.3c0.1,0,0.1-0.1,0.1-0.1c0,0-0.2,0.2-0.2,0.3c0,0.1,0,0.2,0,0.2
			c0,0.2,0,0-0.1-0.2c-0.1-0.2-0.2-0.3-0.3-0.5c-0.2-0.4-0.5-0.7-0.8-1.1c-0.6-0.7-1.2-1.5-1.9-2.2
			C218.1,193.7,217.4,193.1,216.6,192.5z"/>
	</g>
	<g class="st46">
		<path class="st47" d="M381.5,196.1c-0.8,0.6-1.6,1.3-2.2,2c-0.7,0.7-1.3,1.4-1.9,2.2c-0.3,0.4-0.6,0.8-0.8,1.1
			c-0.1,0.2-0.2,0.4-0.3,0.5c-0.1,0.1-0.1,0.3-0.1,0.2c0-0.1,0-0.1,0-0.2c0-0.1-0.2-0.3-0.2-0.3c0,0,0,0,0.1,0.1
			c0.1,0.1,0.3,0.2,0.5,0.3l1.4,0.6c0.9,0.5,2,1,2.8,2.1c0.4,0.5,0.8,1.3,0.8,2c0,0.4,0,0.7-0.1,1.1c-0.1,0.3-0.2,0.6-0.4,0.9
			c-0.6,1.1-1.5,1.8-2.3,2.4c-0.9,0.6-1.8,1.1-2.8,1.4c0.7-0.8,1.4-1.5,2-2.3c0.6-0.7,1.1-1.6,1.3-2.3c0.1-0.4,0.1-0.7,0.1-1
			c-0.1-0.3-0.2-0.5-0.4-0.7c-0.4-0.5-1.2-0.9-2.1-1.3l-1.3-0.6c-0.2-0.1-0.5-0.2-0.8-0.4c-0.1-0.1-0.3-0.2-0.5-0.4
			c-0.1-0.1-0.3-0.4-0.4-0.6c-0.1-0.2-0.1-0.4-0.1-0.6c0-0.7,0.2-0.9,0.4-1.2c0.2-0.3,0.3-0.5,0.5-0.7c0.4-0.4,0.7-0.8,1.1-1.2
			c0.8-0.7,1.7-1.3,2.6-1.8C379.5,196.6,380.4,196.1,381.5,196.1z"/>
	</g>
	<path class="st8" d="M388.2,133.5c0.1,6.1,0.4,16.1,0.7,25.5c0.4,12.3,1.1,23.6,1.9,23.6c1.8,0-12.9,4.1-12.9,4.1
		s-7.8,5.9-14.1,0.5c-4.1-3.5-6.3-24-8.6-40.2c-1.2-8.6-2.4-16.1-4-19.2h25.7L388.2,133.5z"/>
	<path class="st8" d="M290.3,105.1c-9.8,7.2-26.9,18-26.9,18c-5.2,3.4-16.9,13.4-19.5,20.6c-0.1,0.3-0.2,0.7-0.3,1
		c-1.8,7.2-6.3,31.5-9.9,36c-3.6,4.5-15.3,1.8-15.3,1.8s-6.3,0-7.2,0c-0.8,0,6.7-20,8.6-27.4c0.3-1.1,0.4-1.9,0.4-2.3
		c0-3.6,3.6-27,3.6-27s0.3-0.7,0.8-1.7C240.7,115.6,266.6,106.3,290.3,105.1z"/>
	<g>
		<g>
			<path class="st8" d="M387.2,140.7c1.4,18.7,10.7,35,14.3,53.2c2.2,11.3,0.2,22.7-4,33.3c-3.7,9.5-9.7,17.5-14.1,26.5
				c-0.1,0.2,0,1.5,0.2,1.4c3.9-3.3,6.6-8.9,9.2-13.2c2.6-4.3,4.8-8.9,6.6-13.7c3.4-8.9,5.1-18.1,4.7-27.6
				c-1-21.4-13-39.5-16.8-60.2C387.3,140,387.2,140.5,387.2,140.7L387.2,140.7z"/>
		</g>
	</g>
	<g>
		<g>
			<path class="st8" d="M224.6,139.3c-3.9,12.1-8.3,23.9-14.5,35c-5.5,9.9-11.8,19.2-14.2,30.4c-3.5,16.8,1.2,37.1,18.7,43.9
				c0.1,0,0.2-1,0-1.2c-8.1-4.1-14.1-11.4-17.2-19.9c-4.5-12.7-0.6-26.1,5.5-37.4c9-16.4,17.8-31.9,21.7-50.5
				C224.7,139.6,224.6,139.2,224.6,139.3L224.6,139.3z"/>
		</g>
	</g>
	<g>
		<g>
			<path class="st8" d="M223.1,139.3c-4.1,16.3-7.9,32.6-12.9,48.6c-4.3,13.8-10.1,27.4-12,41.8c-1.4,10.6-1.7,24.8,6.1,33.2
				c10.2,11,26.2,2.9,32-8.6c0.1-0.3,0.2-2.8-0.1-2.6c-4.7,2.3-8.3,6.4-13.1,8.7c-5.6,2.6-11.4,2.4-16.4-1.5
				c-12.7-9.8-7.5-30.1-3.9-43.2c7-25.4,16-50,20.5-76.1C223.2,139.6,223.1,139.1,223.1,139.3L223.1,139.3z"/>
		</g>
	</g>
	<g>
		<g>
			<path class="st8" d="M197.7,222c-4.8,9.3-1.4,24.8,3.3,33.5c3.2,5.7,8.6,10.8,15.3,11.8c6.4,0.9,12.1-2.2,14.4-8.3
				c0.1-0.2,0.1-2.3-0.2-2.2c-3.3,1.4-5.8,3.6-9.5,4.3c-4.5,0.8-9.1-0.6-12.8-3.3c-10.5-7.8-12.7-23.1-10.4-35.1
				C197.8,222.5,197.7,221.9,197.7,222L197.7,222z"/>
		</g>
	</g>
	<g>
		<g>
			<path class="st8" d="M348.7,254.2c6.2,3.3,9.5,9.9,16.7,11.5c5.9,1.4,12.5,0.4,16.8-4.1c7.5-7.9,9.3-22.9,8.1-33.2
				c-0.1-0.5-0.2-0.2-0.2,0.1c0,11.5-1.9,27.9-15.4,30.9c-4.8,1.1-9.9,0.4-14.3-1.8c-4.1-2-7-5.2-11.9-4.7
				C348.4,252.9,348.5,254.1,348.7,254.2L348.7,254.2z"/>
		</g>
	</g>
	<g>
		<g>
			<path class="st8" d="M217.8,270.4c-11.2,1.6-19.4-10.6-21.6-20.3c-3-13.7,3.6-28.4,8.2-41.1c0.3-0.8-0.4-3.6-0.4-3.5
				c-6.7,13.2-11.7,27.3-9.6,42.4c0.8,5.7,2.6,11.1,6.1,15.7c3.7,4.8,11.1,10.3,17.3,7.2C217.9,270.8,217.9,270.4,217.8,270.4
				L217.8,270.4z"/>
		</g>
	</g>
	<g>
		<g>
			<path class="st8" d="M330.3,261.8c12.6-1,28.7-4.4,33.8-17.7c0.1-0.3,0.3-2.8-0.2-2.8c-2.6-0.1-4,2.2-5.7,3.8
				c-2.6,2.3-5.5,4.2-8.2,6.3c-6.2,4.8-12,8.1-19.6,10C330.2,261.4,330.2,261.8,330.3,261.8L330.3,261.8z"/>
		</g>
	</g>
	<g>
		<g>
			<path class="st8" d="M341.3,259.3c8.2,2.6,17,0.7,22-6.9c0.1-0.2,0.1-1.6-0.1-1.5c-3.6,1.3-6.1,4.8-9.7,6.4
				c-3.9,1.7-8,0.8-12.2,1.6C341.2,258.9,341.2,259.3,341.3,259.3L341.3,259.3z"/>
		</g>
	</g>
	<g>
		<g>
			<path class="st8" d="M237.4,260.1c-5,3.3-8.2,8.3-14.9,7.7c-6.6-0.5-8.5-5.4-11.7-10.3c-0.1-0.1-0.2,1.3-0.2,1.5
				c1.4,5.8,4.2,12.7,11.2,13.2c7.1,0.5,13.2-5.5,15.7-11.6C237.5,260.6,237.5,260.1,237.4,260.1L237.4,260.1z"/>
		</g>
	</g>
	<g>
		<g>
			<path class="st8" d="M223.9,125c-8,28.2-31.5,58.8-18.1,89c0.1,0.1,0.1-0.5,0.1-0.6C192.9,182.6,216.8,154,223.9,125
				C223.9,125.1,223.9,125,223.9,125L223.9,125z"/>
		</g>
	</g>
	<g>
		<g>
			<path class="st8" d="M397.1,197.8c7.4-4.8,11.1-13.4,9.8-22.1c-2.3-15.1-21-24-18.5-40.4c0-0.2-0.1-1.4-0.2-0.9
				c-1.8,9.1,2.9,17,8.3,24c4.6,6,9.6,12,10.1,19.9c0.5,7.7-3.2,14.7-9.4,19.1C397,197.5,397.1,197.8,397.1,197.8L397.1,197.8z"/>
		</g>
	</g>
	<g>
		<g>
			<path class="st8" d="M352.3,128.1c0.8,8.4-0.8,16.8-0.4,25.2c0.3,6.7,1.3,13.3,3,19.8c1.4,5.3,3.1,12,8.2,15
				c5.9,3.5,12.4-0.1,16.9-4.2c0.2-0.1,0.1-1.4-0.1-1.3c-4.9,1.6-10.1,5.1-15.5,3.3c-6.6-2.1-8.5-11-10-16.8
				c-2.1-8.1-2.7-16.6-2.3-24.9C352.4,138.8,352.9,133.5,352.3,128.1C352.3,128,352.3,128.1,352.3,128.1L352.3,128.1z"/>
		</g>
	</g>
	<g>
		<g>
			<path class="st8" d="M229.1,180.7C229.1,180.7,229.1,180.7,229.1,180.7c0.2-0.1,0.1-0.9,0-1c-0.2-0.3-0.1-0.3-0.4-0.3
				c-0.2,0-0.2,0.5-0.2,0.6c-1,8.1-1.1,16.4-1.5,24.6c0,0.4,0.3,3.6,0.8,2.5c0.5-1.3,0.8-2.4,0.9-3.7c0.5-3.9,1.1-7.5,2.3-11.4
				c1.5-4.8,2.7-9.4,2.9-14.4c0-0.6-0.4-5.6-1.2-3.9c-2,4.4-3.5,8.9-4.3,13.7c-0.2,0.9,0.5,6.2,0.9,4.8c1.7-4.9,3.7-9.8,5.1-14.8
				c0.2-0.9-0.2-5.7-0.7-4.6c-2.1,4.5-3.5,9.4-5.2,14c0.3,1.6,0.6,3.2,0.9,4.8c0.8-4.1,2-8,4-11.7c-0.3-1.4-0.7-2.8-1-4.3
				c-0.2,5.4-2.3,10.3-3.5,15.5c-0.8,3.7-0.1,8.7-1.7,12c0.3,0.8,0.5,1.7,0.8,2.5c0.4-8.2,1.8-17.1,1-25.3
				C229,180.4,229,180.7,229.1,180.7L229.1,180.7z"/>
		</g>
	</g>
	<g>
		<g>
			<path class="st8" d="M367.9,184.1c2.6,0,2.9,19.7,2.8,22.1c0,0.4,0.4,4,0.8,2.1c2.2-8.8,4-17.5,2.4-26.6c-0.2-1-0.8-2.6-1.2-0.7
				c-1.3,6-1.4,12.1-1.4,18.2c0.5,0,1,0,1.5,0c-0.1-4.8-0.1-9.7-0.9-14.4c-0.7-3.7-1.3,1.2-1.2,2.5c0.2,2.6,0.4,5.2,0.7,7.8
				c0.3-1,0.7-2,1-3c-0.6-2-1.2-4.1-1.8-6.1c-0.8-2.6-1.1,3-0.9,3.7c0.3,1.8,0.6,3.6,1.1,5.3c0.6,2,0.8-1.8,0.8-2.3
				c-0.2-2-0.5-4-0.8-6.1c-0.3,1.2-0.6,2.5-0.9,3.7c0.6,2.1,1.2,4.1,1.8,6.2c0.8,2.6,1.1-2.4,1-3c-0.2-2.6-0.4-5.2-0.6-7.8
				c-0.4,0.8-0.8,1.6-1.2,2.5c0.6,3.7,0.5,7.5,0.6,11.3c0,2.5,1.4,4.9,1.5,0.9c0-4.8,0.1-9.6,1.1-14.3c-0.4-0.2-0.8-0.4-1.2-0.7
				c1.2,6.9-0.4,13.5-2,20.1c0.3,0.7,0.6,1.4,0.8,2.1c0.1-4.7,0-9.4-0.7-14.1c-0.4-2.8-0.7-8.6-2.8-10.6c0,0,0,0,0,0
				c-0.1,0-0.2,0.1-0.3,0.1C367.7,182.8,367.7,184.1,367.9,184.1L367.9,184.1z"/>
		</g>
	</g>
	<g>
		<g>
			<path class="st8" d="M227.2,204.6c-0.7-7.7-0.3-15,1.9-22.4c-0.4-1.4-0.9-2.7-1.3-4.1c-0.5,8.3-3.7,16.3-0.9,24.5
				c0.5,1.5,0.9-2.3,0.9-2.6c-0.1-3.3,0.4-6.5,0.7-9.8c0-0.3-0.3-3.7-0.7-2.8c-1.6,3.9-1.5,8.5-1.4,12.6c0.4-0.5,0.8-1,1.2-1.5
				c-1.1-5.9,1.1-11.8,1.6-17.7c0.1-0.7-0.7-6.8-1.2-5c-3,9.7-3.9,20.3-1.5,30.2C227,207.4,227.2,204.9,227.2,204.6L227.2,204.6z"/>
		</g>
	</g>
	<g>
		<g>
			<path class="st8" d="M230.7,180.3c7.4,6.2,12.8-6.3,14-11.6c1-4.2,1.4-8.5,1.3-12.7c-0.1-8.2-3.2-16.6,0.8-24.4
				c0.1-0.2,0-1.7-0.1-1.5c-5,4.7-3.6,13.3-2.8,19.4c1,7.5,0.2,14-2.3,21.2c-1.7,4.9-4.5,12.5-11,9.3
				C230.7,180,230.7,180.3,230.7,180.3L230.7,180.3z"/>
		</g>
	</g>
	<g>
		<g>
			<path class="st8" d="M352.2,130c0.3,5.6-1.2,11.6-1.1,17.2c0,5.2,0.5,10.2,1.6,15.3c2,9,4.8,20,14.5,23.5c0.1,0,0.1-0.7,0-0.8
				c-2.8-3-6.3-5.5-8.6-8.9c-3.4-5-4.5-12.6-5.6-18.5c-1.1-6.4-0.4-12.5,0-18.9c0.2-3.2,0.4-6.5-0.5-9.7
				C352.3,128.8,352.2,129.9,352.2,130L352.2,130z"/>
		</g>
	</g>
	<g>
		<g>
			<path class="st8" d="M231.8,178.5c8.2,0.9,10-7.7,11-14c1.4-8.7,2.3-17.5,2.6-26.4c0-0.3-0.2-0.8-0.2-0.2
				c-0.5,8-1.1,15.9-2.3,23.8c-1,6.7-2.3,16.8-11.1,16.5C231.7,178.2,231.7,178.4,231.8,178.5L231.8,178.5z"/>
		</g>
	</g>
	<g>
		<g>
			<path class="st8" d="M229.8,205.2c-0.5-8.9,0.4-17.1,2.5-25.8c0-0.1,0-0.5-0.1-0.4c-3,8.2-3.7,17.7-2.5,26.3
				C229.8,205.5,229.8,205.2,229.8,205.2L229.8,205.2z"/>
		</g>
	</g>
	<g>
		<g>
			<path class="st8" d="M368.8,205.5c2-6.4,3.1-13.6,3.1-20.4c0-0.6-0.5-2.3-0.6-0.7C370.6,191.5,370,198.4,368.8,205.5
				C368.7,205.4,368.8,205.5,368.8,205.5L368.8,205.5z"/>
		</g>
	</g>
	<g>
		<g>
			<path class="st8" d="M372.4,194.8c-0.3,0.3-0.3,0.9-0.4,1.3c0.1,0.2,0.2,0.5,0.3,0.7c-0.1-1.1-0.1-2.1,0-3.2
				c0-0.1-0.1-1.1-0.2-0.9c-0.5,0.8-0.7,1.6-0.7,2.6c0,0.1,0.1,0.9,0.2,0.8c0.3-0.6,0.4-1.3,0.7-1.9c-0.1-0.2-0.1-0.3-0.2-0.5
				c0.1,1,0,2,0,3c0,0.2,0.1,1.5,0.3,0.8c0.1-0.6,0.3-1.1,0.4-1.7C372.6,195.6,372.5,194.7,372.4,194.8L372.4,194.8z"/>
		</g>
	</g>
	<g>
		<g>
			<path class="st0" d="M235.1,194.9c3.4-7.2,9.1-12.5,17.4-13.2c7.8-0.7,15.3,3.4,18.6,10.5c0,0.1,0-0.2,0-0.3
				c-2.9-7.8-10.2-12.7-18.7-11.7c-8.1,0.9-14.7,7.2-17.4,14.6C235.1,194.8,235.1,195,235.1,194.9L235.1,194.9z"/>
		</g>
	</g>
	<g>
		<g>
			<path class="st0" d="M320.5,191.2c5.2-5.6,11.3-7.9,18.8-8.2c7-0.2,14.2,3.4,16.4,10.4c0,0.1,0.1-0.3,0.1-0.4
				c-1.3-6.1-8.1-11.8-14.4-12.1c-8.1-0.4-15.9,3.8-20.9,10.1C320.4,191,320.5,191.2,320.5,191.2L320.5,191.2z"/>
		</g>
	</g>
	<g class="st21">
		<image style="overflow:visible;" width="106" height="95" xlink:href="D9B25A4D.png"  transform="matrix(1 0 0 1 291 174)">
		</image>
	</g>
	<g class="st21">
		<image style="overflow:visible;" width="105" height="95" xlink:href="D9B25A61.png"  transform="matrix(1 0 0 1 196 172)">
		</image>
	</g>
	<path class="st22" d="M318.3,202.4c1.8-7.8,4.1-11.6,14.4-15.3c11-3.9,24.3,9.9,23.4,15.3s-6.3,16.2-20.7,15.3
		C322.9,216.9,315.6,214.1,318.3,202.4z"/>
	<circle class="st26" cx="333.6" cy="206.9" r="11.7"/>
	<path class="st22" d="M273.3,201.5c-1.8-7.8-4.1-11.6-14.4-15.3c-11-3.9-24.3,9.9-23.4,15.3s7.2,16.2,21.6,15.3
		C269.7,216,276,213.2,273.3,201.5z"/>
	<circle class="st26" cx="259.8" cy="206" r="11.7"/>
	<g>
		<path class="st8" d="M235.5,200.2c1-4.2,3.1-8.2,6.4-11.3c1.6-1.6,3.5-2.9,5.7-3.7c2.1-0.8,4.5-1.1,6.8-1c2.2,0.1,4.5,0.5,6.6,1.4
			c2.1,0.8,4.1,2,5.8,3.5c1.7,1.5,3.1,3.2,4.2,5.1c1.1,1.9,1.9,4,2.1,6.2c-1.5-4-4.3-7.3-7.5-9.7c-3.3-2.4-7.2-3.7-11.3-3.9
			c-4-0.3-7.9,1-11,3.6C240,192.9,237.5,196.4,235.5,200.2z"/>
	</g>
	<g>
		<path class="st8" d="M318.7,200.8c0.6-4.2,2.6-8.3,5.9-11.3c0.8-0.8,1.7-1.4,2.7-2c1-0.5,2-1.1,3.1-1.4c2.1-0.8,4.4-1,6.6-1
			c4.4,0.1,8.9,1.4,12.3,4.2c3.5,2.7,5.8,6.7,6.7,10.8c-1.8-3.8-4.5-7.1-7.8-9.3c-1.7-1.1-3.4-2-5.4-2.5c-0.9-0.3-1.9-0.4-2.9-0.6
			c-1-0.1-2-0.1-3-0.2c-2,0-4,0.2-5.8,0.8c-1,0.2-1.8,0.7-2.7,1c-0.8,0.5-1.7,0.9-2.5,1.6C322.7,193.4,320.3,196.9,318.7,200.8z"/>
	</g>
	<circle class="st8" cx="333.6" cy="206.9" r="4.5"/>
	<circle class="st27" cx="338.6" cy="202.8" r="3.2"/>
	<circle class="st8" cx="259.8" cy="206" r="4.5"/>
	<circle class="st27" cx="263.9" cy="201.9" r="3.2"/>
	<path class="st4" d="M388.9,159c-1.1,1.1-2.1,1.8-2.9,1.9c-1.2,0-6.4-2.8-14.4-6.6c-4.6-2.2-10.2-4.8-16.5-7.4
		c-17.2-7-39.5-13.8-62.1-12.9c-19.7,0.8-36.5,5.2-49.2,9.8c-4,1.4-7.5,2.9-10.6,4.3c-6.7,3-11.3,5.7-13.5,7.1c-1,0.6-1.5,1-1.5,1
		c-5.3-5.1-15.2-12.3-8.9-21.3c1.9-2.7,7.4-6.6,15.2-10.7c16.1-8.5,42.1-17.8,65.7-19c1.7-0.1,3.4-0.1,5.1-0.1c1.3,0,2.7,0,4,0.1
		c17.9,0.9,40.4,7.4,59.2,14.7h0c6.7,2.6,12.9,5.3,18.3,7.8c4.4,2.1,8.3,4.1,11.4,5.9c4.3,2.5,7,4.6,7.5,5.8
		C397.9,144.3,393,154.7,388.9,159z"/>
	<g>
		<path class="st48" d="M299.3,92.9c0.5-0.2,1.4-0.5,1.9-0.7c0.8-0.4,1.3-0.9,1.9-1.5c0.4,0,0.6-0.1,0.8-0.1c0.1,0,0.1,0,0.2,0.1
			c0.6,0.8,3.3,1.7,5.6,1.6c1.6-0.1,3.3-1,3.9-2.4c0.8-0.6,1.1-1.6,1.4-2.5c0.5-0.9,1-1.3,1-2.5c0.3-0.5,0.5-1.2,0.4-2.5
			c2.6-3,0-6.3-1.9-9c1.1,2.3,1.9,6,0.7,6.6c-0.9,0.7-2.6,0.4-3.6-0.1c-1.4-0.6-2.6-1.6-4.6-1.6c-0.2,0-0.4,0.1-0.7,0.1
			c-0.4,0.1-0.9,0.3-1.3,0.8c-0.9,1-0.5,2,0,3.2c0.4,0.9-0.2,1.4-0.9,1.6c0-1.2-0.3-2.5-1.1-3.7c2.1-10,3.7-13.9,4.8-13.1
			c-1.2-0.6-2.4-1.5-4-0.9c-0.6-0.9-1.1-1.4-2.9-1.4c-0.2-0.3-1-0.8-1.7-1.3c-0.7,0.4-1.4,0.9-1.7,1.3c-1.8,0-2.3,0.5-2.9,1.4
			c-1.6-0.6-2.8,0.3-4,0.9c1.1-0.8,2.7,3.1,4.8,13.1c-0.8,1.2-1.1,2.5-1.1,3.7c-0.7-0.1-1.3-0.7-0.9-1.6c0.4-1.1,0.8-2.2,0-3.2
			c-0.4-0.5-0.9-0.7-1.3-0.8c-0.2-0.1-0.5-0.1-0.7-0.1c-1.9,0-3.2,1-4.6,1.6c-1.1,0.5-2.7,0.8-3.6,0.1c-1.1-0.7-0.4-4.3,0.7-6.6
			c-1.9,2.7-4.4,6-1.9,9c-0.1,1.3,0.1,1.9,0.4,2.5c0.1,1.3,0.5,1.7,1,2.5c0.3,0.9,0.6,1.9,1.4,2.5c0.6,1.4,2.3,2.3,3.9,2.4
			c2.3,0.1,5-0.8,5.6-1.6c0.2-0.3,0.3-0.1,1-0.1c0.6,0.6,1.1,1.1,1.9,1.5C297.8,92.5,298.8,92.7,299.3,92.9z"/>
		<path class="st49" d="M316.4,82.6c-2.2,0.8-2.8,0.7-3.4,0.6"/>
		<path class="st50" d="M282.2,82.6c2.2,0.8,2.8,0.7,3.4,0.6"/>
		<path class="st49" d="M316.1,84.5c-1,0.8-2.4,1.1-3.6,1.1"/>
		<path class="st49" d="M282.4,84.5c1,0.8,2.4,1.1,3.6,1.1"/>
		<path class="st49" d="M315.1,87.3c-0.8,0.6-2.1,0.8-3.3,0.7"/>
		<path class="st49" d="M283.5,87.3c0.8,0.6,2.1,0.8,3.3,0.7"/>
		<path class="st50" d="M313.8,89.7c-1,0.3-2.1,0.5-3.2,0.4"/>
		<path class="st49" d="M284.7,89.7c1,0.3,2.1,0.5,3.2,0.4"/>
		<path class="st49" d="M309.1,78.9c-3-0.1-3.1,1.6-2.2,3.8c1,1.8,0.9,2.7,0.8,3.7c-0.5,2.7-2.2,3.4-3.9,4.2"/>
		<path class="st50" d="M289.5,78.9c3-0.1,3.1,1.6,2.2,3.8c-1,1.8-0.9,2.7-0.8,3.7c0.5,2.7,2.2,3.4,3.9,4.2"/>
		<path class="st50" d="M299.3,77.9c-0.6-1.4-1.6-1.6-1.5-3c0.1-1,0.8-1.6,1.5-2.4c0.7,0.8,1.5,1.4,1.5,2.4
			C300.9,76.3,299.8,76.5,299.3,77.9z"/>
		<path class="st51" d="M299.3,87.5c0.6,0,0.9,0.4,0.9,0.9c1.1-0.5,1.7-1.2,1.8-2.2c0.2-2.8-2.7-4.4-2.7-7.2c0,2.8-3,4.5-2.7,7.2
			c0.1,1,0.7,1.7,1.8,2.2C298.3,87.9,298.7,87.5,299.3,87.5z"/>
		<path class="st52" d="M299.3,95.7c-1.4-1-3.4-1.6-5.2-1.2c-2.4,0.6-2.1,2.1-5.3,2.5c-0.1-0.8-0.1-1.7-0.1-2.4
			c2.4-0.1,2.5-1.4,4.8-2c2.8-0.5,4.4,0.2,5.9,1c1.5-0.8,3.1-1.6,5.9-1c2.3,0.5,2.4,1.8,4.8,2c-0.1,0.8-0.1,1.7-0.1,2.4
			c-3.2-0.4-2.9-1.9-5.3-2.5C302.7,94.1,300.7,94.7,299.3,95.7z"/>
		<path class="st52" d="M309.8,97c0.3,0.4,0.5,0.7,0.8,1.1c-1.3-0.1-2.1,0.1-3-0.5c-1.2-0.6-2.2-1.5-3.5-1.9
			c-1.9-0.5-3.3,0.2-4.9,1.3c-1.5-1.1-3-1.7-4.9-1.3c-1.3,0.3-2.3,1.3-3.5,1.9c-0.8,0.6-1.7,0.4-3,0.5c0.3-0.5,0.5-0.7,0.8-1.1
			c3.2-0.4,2.9-1.9,5.3-2.5c1.8-0.4,3.7,0.1,5.2,1.2c1.4-1,3.4-1.6,5.2-1.2C306.9,95.1,306.6,96.7,309.8,97z"/>
		<line class="st49" x1="300.9" y1="65" x2="300.7" y2="72.5"/>
		<line class="st49" x1="297.6" y1="65" x2="297.9" y2="72.5"/>
		<line class="st49" x1="303.9" y1="66.4" x2="302.4" y2="73.9"/>
		<line class="st49" x1="294.6" y1="66.4" x2="296.2" y2="73.9"/>
		<path class="st49" d="M300.7,75.6c0.1,1.4,0.1,3.3,0.2,4.7c0.1,1.6,2.1,2.3,3.1,4"/>
		<path class="st49" d="M297.8,75.6c-0.1,1.4-0.1,3.3-0.2,4.7c-0.1,1.6-2.1,2.3-3.1,4"/>
		<path class="st49" d="M300.7,78.7c1,0.6,1.8,1.1,2.3,1.9"/>
		<path class="st50" d="M297.8,78.7c-1,0.6-1.8,1.1-2.3,1.9"/>
		<g>
			<polygon class="st35" points="299,86.7 298.8,86.5 299,86.3 299.1,86.2 299.2,86 299.3,85.8 299.3,85.6 299.4,85.4 299.4,85.2 
				299.4,85 299.4,84.8 299.4,84.6 299.4,84.4 299.4,84.1 299.3,83.9 299.3,83.7 299.3,83.4 299.2,83.2 299.2,82.9 299.1,82.7 
				299.1,82.4 299.1,82.2 299,81.9 299,81.7 299,81.4 298.9,81.1 298.9,80.9 298.9,80.6 299,80.4 299,80.1 299,79.8 299.1,79.6 
				299.2,79.3 299.3,79.1 299.5,79.2 299.4,79.4 299.4,79.7 299.3,79.9 299.3,80.1 299.2,80.4 299.2,80.6 299.2,80.9 299.2,81.1 
				299.2,81.4 299.3,81.6 299.3,81.9 299.3,82.1 299.4,82.4 299.4,82.6 299.4,82.9 299.5,83.1 299.5,83.4 299.6,83.6 299.6,83.9 
				299.6,84.1 299.7,84.3 299.7,84.6 299.7,84.8 299.7,85 299.7,85.3 299.6,85.5 299.6,85.7 299.5,85.9 299.4,86.1 299.3,86.3 
				299.2,86.5 			"/>
		</g>
		<g>
			<path class="st35" d="M300.1,89.1l-0.3,0l0.1,0.2l0,0l0,0l0,0l0,0l0,0l0,0l0,0l0,0l0,0l0,0l0,0l0,0l0,0l0,0l0,0l0,0l0,0l0,0l0,0
				l0,0l0,0l0,0l0,0l0,0l0,0l0,0l0,0l0,0l0,0l0,0l0,0l0,0l0-0.3l0,0l0,0l0,0l0,0l0,0l0,0l0,0l0,0l0,0l0,0l0,0l0,0l0,0l0,0l0,0l0,0
				l0,0l0,0l0,0l0,0l0,0l0,0l0,0l0,0l0,0l0,0l0,0l0,0l0,0l0,0l0,0l0,0L300.1,89.1L300.1,89.1z M300,89l0.1,0l0,0.1L300,89L300,89z
				 M300.1,90.6l-0.1,0.2l-0.1-0.1l0-0.1l0-0.1l0-0.1l0-0.1l0-0.1l0-0.1l0-0.1l0-0.1l0-0.1l0-0.1l0-0.1l0-0.1l0-0.1l0-0.1l0-0.1
				l0-0.1l0-0.1l0-0.1l0-0.1l0-0.1l0-0.1l0-0.1l0-0.1l0-0.1l0-0.1l0-0.1l0-0.1l0-0.1l0-0.1l0-0.1l0-0.1l0-0.1l0.3,0l0,0l0,0l0,0l0,0
				l0,0l0,0l0,0l0,0l0,0l0,0l0,0l0,0l0,0l0,0l0,0l0,0l0,0l0,0l0,0l0,0l0,0l0,0l0,0l0,0l0,0l0,0l0,0l0,0L300.1,90.6L300.1,90.6
				L300.1,90.6L300.1,90.6L300.1,90.6L300.1,90.6z M300,90.8L300,90.8L300,90.8L300,90.8L300,90.8z M300.7,91l-0.2-0.2l0,0.2l0,0
				l0,0l0,0l0,0l0,0l0,0l0,0l0,0l0,0l0,0l0,0l0,0l0,0l0,0l0,0l0,0l0,0l0,0l0,0l0,0l0,0l0,0l0,0l0,0l0,0l0,0l0,0l0,0l0,0l0,0l0,0l0,0
				l0.1-0.2l0,0l0,0l0,0l0,0l0,0l0,0l0,0l0,0l0,0l0,0l0,0l0,0l0,0l0,0l0,0l0,0l0,0l0,0l0,0l0,0l0,0l0,0l0,0l0,0l0,0l0,0l0,0l0,0l0,0
				l0,0l0,0l0,0L300.7,91L300.7,91z M300.6,90.8l0.2,0.1l-0.1,0.1L300.6,90.8L300.6,90.8z M300.1,91.8l-0.2-0.2l0,0l0,0l0,0l0,0l0,0
				l0,0l0,0l0,0l0,0l0,0l0,0l0,0l0,0l0,0l0,0l0,0l0,0l0,0l0,0l0,0l0,0l0,0l0,0l0,0l0,0l0,0l0,0l0,0l0,0l0,0l0,0l0,0l0,0l0.2,0.2l0,0
				l0,0l0,0l0,0l0,0l0,0l0,0l0,0l0,0l0,0l0,0l0,0l0,0l0,0l0,0l0,0l0,0l0,0l0,0l0,0l0,0l0,0l0,0l0,0l0,0l0,0l0,0l0,0L300.1,91.8
				L300.1,91.8L300.1,91.8L300.1,91.8L300.1,91.8L300.1,91.8z M299.2,92.5l0.2-0.2h-0.2l0,0l0,0l0,0l0,0l0,0l0,0l0,0l0,0l0,0l0,0
				l0,0l0,0l0,0l0,0l0,0l0,0l0,0l0,0l0,0l0,0l0,0l0,0l0,0l0,0l0,0l0,0l0,0l0,0l0,0l0,0l0,0l0,0l0.2,0.2l0,0l0,0l0,0l0,0l0,0l0,0l0,0
				l0,0l0,0l0,0l0,0l0,0l0,0l0,0l0,0l0,0l0,0l0,0l0,0l0,0l0,0l0,0l0,0l0,0l0,0l0,0l0,0l0,0l0,0l0,0l0,0l0,0H299.2L299.2,92.5z
				 M299.4,92.5l-0.1,0.1l-0.1-0.1H299.4L299.4,92.5z M298.4,91.8l0.2-0.2v0l0,0l0,0l0,0l0,0l0,0l0,0l0,0l0,0l0,0l0,0l0,0l0,0l0,0
				l0,0l0,0l0,0l0,0l0,0l0,0l0,0l0,0l0,0l0,0l0,0l0,0l0,0l0,0l0,0l0,0l0,0l0,0l0,0l-0.2,0.2l0,0l0,0l0,0l0,0l0,0l0,0l0,0l0,0l0,0
				l0,0l0,0l0,0l0,0l0,0l0,0l0,0l0,0l0,0l0,0l0,0l0,0l0,0l0,0l0,0l0,0l0,0l0,0L298.4,91.8L298.4,91.8L298.4,91.8L298.4,91.8
				L298.4,91.8L298.4,91.8L298.4,91.8z M297.9,90.8L298,91l0-0.2l0,0l0,0l0,0l0,0l0,0l0,0l0,0l0,0l0,0l0,0l0,0l0,0l0,0l0,0l0,0l0,0
				l0,0l0,0l0,0l0,0l0,0l0,0l0,0l0,0l0,0l0,0l0,0l0,0l0,0l0,0l0,0l0,0l-0.2,0.2l0,0l0,0l0,0l0,0l0,0l0,0l0,0l0,0l0,0l0,0l0,0l0,0
				l0,0l0,0l0,0l0,0l0,0l0,0l0,0l0,0l0,0l0,0l0,0l0,0l0,0l0,0l0,0l0,0l0,0l0,0l0,0l0,0L297.9,90.8L297.9,90.8z M297.8,91l-0.1-0.1
				l0.2-0.1L297.8,91L297.8,91z M298.3,90.7l0.3,0.1l-0.1,0.1l0,0l0,0l0,0l0,0l0,0l0,0l0,0l0,0l0,0l0,0l0,0l0,0l0,0l0,0l0,0l0,0l0,0
				l0,0l0,0l0,0l0,0l0,0l0,0l0,0l0,0l0,0l0,0l0,0l0,0l0,0l0,0l0,0l-0.1-0.2l0,0l0,0l0,0l0,0l0,0l0,0l0,0l0,0l0,0l0,0l0,0l0,0l0,0
				l0,0l0,0l0,0l0,0l0,0l0,0l0,0L298.3,90.7L298.3,90.7L298.3,90.7L298.3,90.7L298.3,90.7L298.3,90.7L298.3,90.7L298.3,90.7
				L298.3,90.7L298.3,90.7L298.3,90.7L298.3,90.7L298.3,90.7L298.3,90.7z M298.6,90.7L298.6,90.7L298.6,90.7L298.6,90.7L298.6,90.7z
				 M298.5,89l0,0.3l0.1-0.2l0,0.1l0,0.1l0,0.1l0,0.1l0,0.1l0,0.1l0,0.1l0,0.1l0,0.1l0,0.1l0,0.1l0,0.1l0,0.1l0,0.1l0,0.1l0,0.1
				l0,0.1l0,0.1l0,0.1l0,0.1l0,0.1l0,0.1l0,0.1l0,0.1l0,0.1l0,0.1l0,0.1l0,0.1l0,0.1l0,0.1l0,0.1l0,0.1l-0.3-0.1l0,0l0,0l0,0l0,0
				l0,0l0,0l0,0l0,0l0,0l0,0l0,0l0,0l0,0l0,0l0,0l0,0l0,0l0,0l0,0l0,0l0,0l0,0l0,0l0,0l0,0l0,0l0,0l0,0l0,0l0,0l0,0l0,0L298.5,89
				L298.5,89z M298.4,89.1l0-0.1l0.1,0L298.4,89.1L298.4,89.1z M299.3,88.8l0,0.3h0l0,0l0,0l0,0l0,0l0,0l0,0l0,0l0,0l0,0l0,0l0,0
				l0,0l0,0l0,0l0,0l0,0l0,0l0,0l0,0l0,0l0,0l0,0l0,0l0,0l0,0l0,0l0,0l0,0l0,0l0,0l0,0l0,0l0-0.3l0,0l0,0l0,0l0,0l0,0l0,0l0,0l0,0
				l0,0l0,0l0,0l0,0l0,0l0,0l0,0l0,0l0,0l0,0l0,0l0,0l0,0l0,0l0,0l0,0l0,0l0,0l0,0l0,0L299.3,88.8L299.3,88.8L299.3,88.8L299.3,88.8
				L299.3,88.8L299.3,88.8z M299.3,88.8L299.3,88.8L299.3,88.8L299.3,88.8z"/>
		</g>
	</g>
	<linearGradient id="SVGID_17_" gradientUnits="userSpaceOnUse" x1="462.5747" y1="511.1862" x2="462.5287" y2="511.3049">
		<stop  offset="0" style="stop-color:#F8CE98"/>
		<stop  offset="0.2795" style="stop-color:#F7C992"/>
		<stop  offset="0.6341" style="stop-color:#F5BA83"/>
		<stop  offset="1" style="stop-color:#F3A36B"/>
	</linearGradient>
	<path class="st53" d="M462.8,511.2c-0.2,0-0.4,0-0.4,0C462.2,511,462.4,511,462.8,511.2z"/>
	<linearGradient id="SVGID_18_" gradientUnits="userSpaceOnUse" x1="278.4718" y1="287.507" x2="272.019" y2="295.3104">
		<stop  offset="0" style="stop-color:#F2F2F2"/>
		<stop  offset="0.3095" style="stop-color:#ECECEC"/>
		<stop  offset="0.7015" style="stop-color:#DDDDDD"/>
		<stop  offset="1" style="stop-color:#CCCCCC"/>
	</linearGradient>
	<path class="st54" d="M277.2,274.4c2.6,3.4,13,15.5,18.7,17.1c0,0-9.9-2.1-11.7,4.7c-1.8,6.8-1.8,8.7-5.4,8.7
		c-3.6,0-17.1-14.6-18-18.4s12.6-16.5,14.4-17.5c3.6-1.9,1.2,1,1.1,2.3C276.2,272.5,276.5,273.6,277.2,274.4z"/>
	<linearGradient id="SVGID_19_" gradientUnits="userSpaceOnUse" x1="308.4988" y1="279.968" x2="325.1561" y2="294.8245">
		<stop  offset="0" style="stop-color:#F2F2F2"/>
		<stop  offset="0.3095" style="stop-color:#ECECEC"/>
		<stop  offset="0.7015" style="stop-color:#DDDDDD"/>
		<stop  offset="1" style="stop-color:#CCCCCC"/>
	</linearGradient>
	<path class="st55" d="M319,275.4c-2.6,3.4-14.7,15.5-20.4,17c0,0,11.7-2,13.5,4.8c1.8,6.8,1.8,8.7,5.4,8.7s17.1-14.6,18-18.4
		c0.9-3.9-12.6-16.5-14.4-17.5c-3.6-1.9-1.2,1-1.1,2.3C319.9,273.4,319.6,274.5,319,275.4z"/>
	<linearGradient id="SVGID_20_" gradientUnits="userSpaceOnUse" x1="207.3613" y1="333.0368" x2="250.6805" y2="371.6729">
		<stop  offset="0" style="stop-color:#F2F2F2"/>
		<stop  offset="0.3095" style="stop-color:#ECECEC"/>
		<stop  offset="0.7015" style="stop-color:#DDDDDD"/>
		<stop  offset="1" style="stop-color:#CCCCCC"/>
	</linearGradient>
	<path class="st56" d="M239.9,301.9c-1.4,1.3-2.6,2.9-3.5,4.9c-3.8,8.3-5.4,59-6,87.6c-10.9-1.9-27.6-5.1-30-7.4
		c-3.6-3.6,2.7-11.7,9-38.7C215.4,322.6,227.9,305.9,239.9,301.9z"/>
	<path class="st4" d="M515.5,360.1l-0.4,0.7c0,0-6.8,3.6-6.8,0.9c0-2.7,9.7-18.9,11.6-21.6l1.9,0.5c-1.1,8-6.7,17.5-6.7,19.3
		C515.1,360.1,515.2,360.1,515.5,360.1z"/>
	<path class="st15" d="M511,362.6c-0.1,0.3-0.1,0.6-0.2,0.9c-5.2,13.4-10.7,29.9-12.4,44.1c-0.3,2.6-0.7,5.4-1,8.5
		c-0.8-0.2-1.5-0.3-2.3-0.5c3-27.7,17.6-59.8,15.9-55.7C510.1,362.1,512.1,358.2,511,362.6z"/>
	<path class="st4" d="M494.2,442.3c-0.5,4.4-1,8.7-1.4,13h-3.4c0,0,1-4.1,2.4-13.4C492.6,442.1,493.4,442.2,494.2,442.3z"/>
	<path class="st4" d="M306.6,304.1c-0.4,0.4-1.2,0.9-2.1,1.4c-2.8,1.5-6.9,3.1-6.9,3.1s-3.5-0.9-5.9-2.3c-1-0.6-1.9-1.4-2.2-2.2
		c-0.9-2.7,1.8-9.9,1.8-9.9c2.7-0.9,10.8-0.9,12.6,0S308.4,302.3,306.6,304.1z"/>
	<path class="st15" d="M311.1,387.8c0,0-24.3,3.6-25.2-3.6c-0.8-6.1,4.3-61.9,5.8-78c2.4,1.4,5.9,2.3,5.9,2.3s4.1-1.5,6.9-3.1
		L311.1,387.8z"/>
	<g>
		<g>
			<path class="st8" d="M584.4,201.9c2.7,8.6,3.7,16.6,4.7,25.5c0.5,4.3,0.7,10.9,3.7,14.3c0.1,0.1,0.1-0.9,0.1-1
				c-2.1-8.3-3.2-16.2-4.2-24.7c-0.5-4.5-1-11.1-4.2-14.5C584.4,201.4,584.4,201.8,584.4,201.9L584.4,201.9z"/>
		</g>
	</g>
	<g>
		<g>
			<path class="st8" d="M626.3,223.4c1.5,3.9,2.4,10.6-2,13c-0.4,0.2,0,1.7,0,1.7c1.5-0.7,2.6-0.9,3.4-2.5c0.6-1.2,0.8-2.7,0.8-4
				c0.1-2.5,0.1-6.7-1.7-8.8c0,0,0,0-0.1,0c-0.2,0.1-0.3,0.2-0.5,0.3C626.2,223.1,626.3,223.4,626.3,223.4L626.3,223.4z"/>
		</g>
	</g>
	<g>
		<g>
			<path class="st8" d="M624.5,236.3c-0.2,0.3-1.5-0.7-1.7-0.9c-0.2-0.2-0.4-0.3-0.6-0.5c-0.1-0.1-0.4-0.4-0.5-0.4
				c-0.2,0-0.1,0.7-0.1,0.8c0.2,0.9,0.8,1.7,1.5,2.2c0.3,0.2,0.7,0.5,1,0.5c0.4,0.1,0.5-0.3,0.6-0.6
				C624.7,237.3,624.6,236.2,624.5,236.3L624.5,236.3z"/>
		</g>
	</g>
	<g>
		<g>
			<path class="st8" d="M584.3,202c2.5,8.4,1,18.1,2.2,26.8c0.9,6.6,2.6,13.3,6.3,18.9c0,0,0.1-0.4,0-0.5c-5.1-9.2-6.6-18.9-7-29.2
				C585.6,212.6,586.3,206.9,584.3,202C584.3,201.9,584.3,202,584.3,202L584.3,202z"/>
		</g>
	</g>
	<g>
		<g>
			<path class="st8" d="M591.7,215.3c1.1,10.9-1,20.9-4.8,31c-0.1,0.2,0.1,0.8,0.1,0.8c5-9.7,6-21.2,4.8-31.9
				C591.7,215,591.7,215.3,591.7,215.3L591.7,215.3z"/>
		</g>
	</g>
	<g>
		<g>
			<path class="st8" d="M594.4,227.5c-0.7,10.2-1.6,20.1-5.9,29.6c-0.1,0.2,0.1,0.9,0.1,0.9C593.6,248.7,594.1,237.9,594.4,227.5
				C594.5,227.4,594.4,227.2,594.4,227.5L594.4,227.5z"/>
		</g>
	</g>
	<g>
		<g>
			<path class="st8" d="M602.1,224.8c0.7,5.9,2.5,12.3,0.6,18.1c-1,3-2.8,5.5-4.9,7.8c-3.6,3.9-7.9,6.7-9.8,11.9
				c0,0.1,0.1,0.7,0.1,0.7c2.3-3.4,5.7-5.3,9-7.7c3.5-2.6,5.6-5.6,6.7-9.8c1.8-6.9,1.1-15.2-1.5-21.8
				C602.2,223.8,602.1,224.7,602.1,224.8L602.1,224.8z"/>
		</g>
	</g>
	<g>
		<g>
			<path class="st8" d="M605.6,223c2.2,9-0.3,16.6-3.3,24.8c0,0.1,0.1,0.6,0.1,0.6c4.5-7.5,5.8-17.3,3.3-25.7
				C605.6,222.5,605.6,222.9,605.6,223L605.6,223z"/>
		</g>
	</g>
	<g>
		<g>
			<path class="st8" d="M457.7,203.2c0-0.1,0-0.2,0-0.2c0-0.2-0.1-0.4-0.1-0.1C457.6,203,457.6,203,457.7,203.2
				C457.7,203.2,457.7,203.3,457.7,203.2L457.7,203.2z"/>
		</g>
	</g>
	<rect x="482.2" y="576" class="st6" width="134.2" height="12.6"/>
	<path class="st57" d="M305.1,665.9c-4.6-4.2-5.8,17.3,0.4,26.3c6.3,9,8.3,8.1,18.8,9c9.6,0.8,17.7-3.6,13.6-15.3
		c-4.2-11.7-6.3-20-6.3-20S310.9,671.1,305.1,665.9z"/>
	<path class="st57" d="M358,697.6"/>
	<path class="st57" d="M265.4,664.3c-5.9-4.6-12,12.6-28.1,18.9s-24.1,13.5-12.6,14.4c11.5,0.9,70.1-1.8,71.3-3.6
		c1.1-1.8,3.4-5.4,2.3-11.7s-7.5-21.6-7.5-21.6S272.3,669.7,265.4,664.3z"/>
	<path class="st6" d="M379.5,735.5c0.3,0.9-4.9,5.3,1.2,7.4c6.1,2.1,81.6-2.1,80.4-4.2c-1.2-2.1,0-7.2,0-7.2L379.5,735.5z"/>
	<path class="st57" d="M427.5,699.5c-6.3-5.4-12.7,14.8-29.8,22.2s-25.6,15.9-13.4,16.9c12.2,1.1,74.3-2.1,75.5-4.2
		c1.2-2.1,3.7-6.3,2.4-13.8s-6.2-21.2-6.2-21.2S434.8,705.9,427.5,699.5z"/>
	<path class="st6" d="M412.9,686c-3.6,1-4.6,5.5-5,5.9c-0.4,0.4,5,8.8,5,8.8l4.5-5.2L412.9,686z"/>
	<path class="st0" d="M206.4,507.4c0,0-0.3,0-0.8,0l0.5-2.6l0.2-1.1l0,0l0.4,1.2c0,0,0.2,0.6,0.5,1.7c-0.4-0.8-0.7-1.4-0.9-1.5
		c0,0-0.1-0.1-0.1-0.1C206.2,506.5,206.4,507.4,206.4,507.4z"/>
</g>
</svg>
